<?xml version="1.0" encoding="UTF-8"?>
<svg width="14px" height="14px" viewBox="0 0 14 14" version="1.1" xmlns="http://www.w3.org/2000/svg" xmlns:xlink="http://www.w3.org/1999/xlink">
    <!-- Generator: Sketch 51.3 (57544) - http://www.bohemiancoding.com/sketch -->
    <title>check-圈</title>
    <desc>Created with Sketch.</desc>
    <defs>
        <polygon id="path-1" points="0.0002 0 14 0 14 14 0.0002 14"></polygon>
    </defs>
    <g id="设计规范" stroke="none" stroke-width="1" fill="none" fill-rule="evenodd">
        <g id="设计规范---Web" transform="translate(-2260.000000, -1320.000000)">
            <g id="check-圈" transform="translate(2260.000000, 1320.000000)">
                <polygon id="Fill-1" fill="#000000" opacity="0" points="0 14 14 14 14 0 0 0"></polygon>
                <g id="Group-5">
                    <mask id="mask-2" fill="white">
                        <use xlink:href="#path-1"></use>
                    </mask>
                    <g id="Clip-4"></g>
                    <path d="M7.0002,0 C3.1342,0 0.0002,3.134 0.0002,7 C0.0002,10.866 3.1342,14 7.0002,14 C10.8662,14 14.0002,10.866 14.0002,7 C14.0002,3.134 10.8662,0 7.0002,0 M7.0002,0.5 C10.5842,0.5 13.5002,3.416 13.5002,7 C13.5002,10.584 10.5842,13.5 7.0002,13.5 C3.4162,13.5 0.5002,10.584 0.5002,7 C0.5002,3.416 3.4162,0.5 7.0002,0.5" id="Fill-3" fill="#0E7CC2" mask="url(#mask-2)"></path>
                </g>
                <polyline id="Stroke-6" stroke="#0E7CC2" stroke-width="0.5" stroke-linecap="round" stroke-linejoin="round" points="10.8889 4.5249 5.9389 9.4749 3.1109 6.6469"></polyline>
            </g>
        </g>
    </g>
</svg>