<?xml version="1.0" encoding="UTF-8"?>
<svg width="14px" height="14px" viewBox="0 0 14 14" version="1.1" xmlns="http://www.w3.org/2000/svg" xmlns:xlink="http://www.w3.org/1999/xlink">
    <!-- Generator: Sketch 51.3 (57544) - http://www.bohemiancoding.com/sketch -->
    <title>成功</title>
    <desc>Created with Sketch.</desc>
    <defs></defs>
    <g id="设计规范" stroke="none" stroke-width="1" fill="none" fill-rule="evenodd">
        <g id="设计规范---Web" transform="translate(-5879.000000, -120.000000)" fill="#2FC25B" fill-rule="nonzero">
            <g id="Group-48" transform="translate(5159.000000, 37.000000)">
                <g id="Group-47" transform="translate(0.000000, 74.000000)">
                    <g id="Input/Medium/Validate-Success" transform="translate(552.000000, 0.000000)">
                        <g id="成功" transform="translate(168.000000, 9.000000)">
                            <rect id="Rectangle-path" opacity="0" x="0" y="0" width="14" height="14"></rect>
                            <path d="M6.98148355,13.1161073 C3.6010255,13.1161073 0.860703443,10.3756313 0.860703443,6.99520125 C0.860703443,3.61486912 3.60103949,0.874407146 6.98148355,0.874407146 C10.3619416,0.874407146 13.1022916,3.61486911 13.1022916,6.99520125 C13.1022916,10.3756313 10.3619416,13.1161073 6.98148355,13.1161073 Z M10.7213719,4.84308238 L10.5246653,4.64637575 C10.415987,4.53769743 10.2399303,4.53769743 10.131252,4.64637575 L6.0511843,8.64180086 L4.55334584,7.07424766 C4.50415518,7.02507101 4.37618396,7.07342222 4.26749165,7.18210053 L4.07078502,7.37883515 C3.9621067,7.48751347 3.91403529,7.61548469 3.96319796,7.66452146 L5.9618129,9.75590749 C6.01070974,9.80509815 6.13868098,9.75657904 6.24737329,9.64805462 L6.4438141,9.45133401 C6.47858053,9.4168334 6.50412721,9.38110162 6.52530885,9.34591548 L10.7213859,5.23664956 C10.8300782,5.12809715 10.8300782,4.95176071 10.7213719,4.84308238 Z" id="Shape"></path>
                        </g>
                    </g>
                </g>
            </g>
        </g>
    </g>
</svg>