<?xml version="1.0" encoding="UTF-8"?>
<svg width="851px" height="515px" viewBox="0 0 851 515" version="1.1" xmlns="http://www.w3.org/2000/svg" xmlns:xlink="http://www.w3.org/1999/xlink">
    <!-- Generator: Sketch 51.3 (57544) - http://www.bohemiancoding.com/sketch -->
    <title>楼</title>
    <desc>Created with Sketch.</desc>
    <defs>
        <filter x="-0.8%" y="-2.0%" width="101.6%" height="104.8%" filterUnits="objectBoundingBox" id="filter-1">
            <feOffset dx="0" dy="2" in="SourceAlpha" result="shadowOffsetOuter1"></feOffset>
            <feGaussianBlur stdDeviation="2" in="shadowOffsetOuter1" result="shadowBlurOuter1"></feGaussianBlur>
            <feColorMatrix values="0 0 0 0 0   0 0 0 0 0   0 0 0 0 0  0 0 0 0.5 0" type="matrix" in="shadowBlurOuter1" result="shadowMatrixOuter1"></feColorMatrix>
            <feMerge>
                <feMergeNode in="shadowMatrixOuter1"></feMergeNode>
                <feMergeNode in="SourceGraphic"></feMergeNode>
            </feMerge>
        </filter>
        <filter x="-1.9%" y="-7.7%" width="103.8%" height="115.5%" filterUnits="objectBoundingBox" id="filter-2">
            <feOffset dx="0" dy="0" in="SourceAlpha" result="shadowOffsetOuter1"></feOffset>
            <feGaussianBlur stdDeviation="2.5" in="shadowOffsetOuter1" result="shadowBlurOuter1"></feGaussianBlur>
            <feColorMatrix values="0 0 0 0 0.192860252   0 0 0 0 0.305125985   0 0 0 0 0.376567815  0 0 0 1 0" type="matrix" in="shadowBlurOuter1" result="shadowMatrixOuter1"></feColorMatrix>
            <feMerge>
                <feMergeNode in="shadowMatrixOuter1"></feMergeNode>
                <feMergeNode in="SourceGraphic"></feMergeNode>
            </feMerge>
        </filter>
        <filter x="-1.9%" y="-2.0%" width="103.8%" height="104.0%" filterUnits="objectBoundingBox" id="filter-3">
            <feOffset dx="0" dy="0" in="SourceAlpha" result="shadowOffsetOuter1"></feOffset>
            <feGaussianBlur stdDeviation="2.5" in="shadowOffsetOuter1" result="shadowBlurOuter1"></feGaussianBlur>
            <feColorMatrix values="0 0 0 0 0.574778254   0 0 0 0 0.824535246   0 0 0 0 0.983471514  0 0 0 1 0" type="matrix" in="shadowBlurOuter1" result="shadowMatrixOuter1"></feColorMatrix>
            <feMerge>
                <feMergeNode in="shadowMatrixOuter1"></feMergeNode>
                <feMergeNode in="SourceGraphic"></feMergeNode>
            </feMerge>
        </filter>
    </defs>
    <g id="Page-1-Copy" stroke="none" stroke-width="1" fill="none" fill-rule="evenodd">
        <g id="首页-B3到1F-告警" transform="translate(-630.000000, -153.000000)">
            <g id="楼" filter="url(#filter-1)" transform="translate(629.000000, 159.000000)">
                <g id="地下楼层-copy" transform="translate(208.000000, 402.000000)" fill="#51A4D9">
                    <g id="楼主体" filter="url(#filter-2)" fill-opacity="0.1">
                        <path d="M59.1451526,60.5 L3.14817007,96.0630703 L336.001123,96.4998082 L392.308544,60.5 L59.1451526,60.5 Z" id="Rectangle-4-Copy-11" stroke="#193A4F"></path>
                        <rect id="Rectangle-4-Copy-9" stroke="#193A4F" x="59.5" y="0.5" width="334" height="59"></rect>
                        <path d="M1.5,37.2368403 L1.5,95.954464 L58.5,59.9676431 L58.5,0.911545394 L1.5,37.2368403 Z" id="Rectangle-4-Copy-10" stroke="#123246"></path>
                        <rect id="Rectangle-4-Copy" stroke="#3A7BA5" x="1.5" y="37.5" width="334" height="59"></rect>
                        <path d="M336.5,37.0517797 L336.5,96.086827 L393.5,59.6408935 L393.5,0.909084356 L336.5,37.0517797 Z" id="Rectangle-4-Copy-4" stroke="#3A7BA5"></path>
                        <path d="M58.9210958,0.62618637 L2.68921176,36.4868175 L335.78813,36.9378781 L392.162468,0.62618637 L58.9210958,0.62618637 Z" id="Rectangle-4-Copy-7" stroke="#3A7BA5"></path>
                    </g>
                    <g id="楼中" transform="translate(1.000000, 20.000000)" fill-opacity="0.05" stroke="#51A4D9" stroke-opacity="0.1">
                        <path d="M56.8731891,20.6460258 L1.81650554,56.0869404 L335.797014,56.6457776 L391.149673,20.6460258 L56.8731891,20.6460258 Z" id="Rectangle-4-Copy-25"></path>
                        <path d="M56.8731891,0.792051541 L1.81650554,36.2329662 L335.797014,36.7918033 L391.149673,0.792051541 L56.8731891,0.792051541 Z" id="Rectangle-4-Copy-26"></path>
                    </g>
                </g>
                <g id="Group-3" transform="translate(426.695341, 385.772623) rotate(-3.000000) translate(-426.695341, -385.772623) translate(4.695341, 295.772623)" fill="#51A4D9" fill-opacity="0.1">
                    <ellipse id="Oval-7" cx="422" cy="89.5809011" rx="322" ry="68.4602009"></ellipse>
                    <ellipse id="Oval-7-Copy-2" cx="422" cy="89.5809011" rx="422" ry="89.5809011"></ellipse>
                    <ellipse id="Oval-7-Copy" cx="422" cy="89.5809011" rx="209" ry="44.4263006"></ellipse>
                </g>
                <g id="地上楼层-copy" transform="translate(207.835548, 0.000000)">
                    <g id="楼主体" filter="url(#filter-3)">
                        <path d="M0.823913072,36.5847764 L0.500858891,375.100242 L57.5,339.691957 L57.5,0.905590883 L0.823913072,36.5847764 Z" id="Rectangle-4-Copy-6" stroke="#36607B"></path>
                        <path d="M58.3033617,339.85775 L2.58105112,374.938077 L334.573773,374.938077 L391.370699,340.793068 L58.3033617,339.85775 Z" id="Rectangle-4-Copy-7" stroke="#36607B" fill-opacity="0.1" fill="#51A4D9"></path>
                        <path d="M203.5,0.5 L58.5,0.5 L58.5,339.5 L392.5,339.5 L392.5,261.5 L203.5,261.5 L203.5,0.5 Z" id="Combined-Shape-Copy" stroke="#36607B" fill-opacity="0.1" fill="#51A4D9"></path>
                        <path d="M145.821839,36.5 L0.5,36.5 L0.5,375.5 L334.5,375.5 L334.5,296.261429 L145.821839,296.261429 L145.821839,36.5 Z" id="Combined-Shape" stroke="#6DBCEE" fill-opacity="0.1" fill="#51A4D9"></path>
                        <path d="M335.5,296.103492 L335.5,375.108391 L392.5,340.269015 L392.5,261.883363 L335.5,296.103492 Z" id="Rectangle-4-Copy-4" stroke="#6DBCEE" fill-opacity="0.1" fill="#51A4D9"></path>
                        <path d="M146.824176,36.5330337 L146.824176,295.121231 L203.5,261.43993 L203.5,0.906211372 L146.824176,36.5330337 Z" id="Rectangle-4-Copy-5" stroke="#6DBCEE" fill-opacity="0.1" fill="#51A4D9"></path>
                        <path d="M204.193054,261.675019 L147.661876,295.446787 L334.571819,296.942734 L391.410303,261.675019 L204.193054,261.675019 Z" id="Rectangle-4-Copy-2" stroke="#6DBCEE" fill-opacity="0.1" fill="#51A4D9"></path>
                        <path d="M57.882314,0.5 L1.70689328,36.5 L146.117686,36.5 L202.293107,0.5 L57.882314,0.5 Z" id="Rectangle-4-Copy-3" stroke="#6DBCEE" fill-opacity="0.05" fill="#51A4D9"></path>
                    </g>
                    <g id="楼中" transform="translate(0.000000, 19.000000)" fill="#51A4D9" fill-opacity="0.05" stroke="#51A4D9" stroke-opacity="0.1">
                        <path d="M57.0376411,301.012795 L1.9809575,336.45371 L335.961466,337.012547 L391.314125,301.012795 L57.0376411,301.012795 Z" id="Rectangle-4-Copy-24"></path>
                        <path d="M57.0376411,281.168245 L1.9809575,316.60916 L335.961466,317.167997 L391.314125,281.168245 L57.0376411,281.168245 Z" id="Rectangle-4-Copy-25"></path>
                        <path d="M57.0376411,261.323696 L1.9809575,296.76461 L335.961466,297.323447 L391.314125,261.323696 L57.0376411,261.323696 Z" id="Rectangle-4-Copy-26"></path>
                        <path d="M57.0376411,241.479146 L1.9809575,276.920061 L335.961466,277.478898 L391.314125,241.479146 L57.0376411,241.479146 Z" id="Rectangle-4-Copy-27"></path>
                        <path d="M57.882314,1.34454968 L1.70689328,37.3445497 L146.117686,37.3445497 L202.293107,1.34454968 L57.882314,1.34454968 Z" id="Rectangle-4-Copy-12"></path>
                        <path d="M57.882314,21.1890994 L1.70689328,57.1890994 L146.117686,57.1890994 L202.293107,21.1890994 L57.882314,21.1890994 Z" id="Rectangle-4-Copy-13"></path>
                        <path d="M57.882314,41.0336491 L1.70689328,77.0336491 L146.117686,77.0336491 L202.293107,41.0336491 L57.882314,41.0336491 Z" id="Rectangle-4-Copy-14"></path>
                        <path d="M57.882314,60.8781987 L1.70689328,96.8781987 L146.117686,96.8781987 L202.293107,60.8781987 L57.882314,60.8781987 Z" id="Rectangle-4-Copy-15"></path>
                        <path d="M57.882314,80.7227484 L1.70689328,116.722748 L146.117686,116.722748 L202.293107,80.7227484 L57.882314,80.7227484 Z" id="Rectangle-4-Copy-16"></path>
                        <path d="M57.882314,100.567298 L1.70689328,136.567298 L146.117686,136.567298 L202.293107,100.567298 L57.882314,100.567298 Z" id="Rectangle-4-Copy-17"></path>
                        <path d="M57.882314,120.411848 L1.70689328,156.411848 L146.117686,156.411848 L202.293107,120.411848 L57.882314,120.411848 Z" id="Rectangle-4-Copy-18"></path>
                        <path d="M57.882314,140.256397 L1.70689328,176.256397 L146.117686,176.256397 L202.293107,140.256397 L57.882314,140.256397 Z" id="Rectangle-4-Copy-19"></path>
                        <path d="M57.882314,160.100947 L1.70689328,196.100947 L146.117686,196.100947 L202.293107,160.100947 L57.882314,160.100947 Z" id="Rectangle-4-Copy-20"></path>
                        <path d="M57.882314,179.945497 L1.70689328,215.945497 L146.117686,215.945497 L202.293107,179.945497 L57.882314,179.945497 Z" id="Rectangle-4-Copy-21"></path>
                        <path d="M57.8856266,199.790047 L1.669142,236.790047 L146.114373,236.790047 L202.330858,199.790047 L57.8856266,199.790047 Z" id="Rectangle-4-Copy-22"></path>
                        <path d="M57.8856266,220.634596 L1.669142,257.634596 L146.114373,257.634596 L202.330858,220.634596 L57.8856266,220.634596 Z" id="Rectangle-4-Copy-23"></path>
                    </g>
                </g>
            </g>
        </g>
    </g>
</svg>