<?xml version="1.0" encoding="UTF-8"?>
<svg width="222px" height="206px" viewBox="0 0 222 206" version="1.1" xmlns="http://www.w3.org/2000/svg" xmlns:xlink="http://www.w3.org/1999/xlink">
    <!-- Generator: Sketch 51.3 (57544) - http://www.bohemiancoding.com/sketch -->
    <title>圆圈背景2</title>
    <desc>Created with Sketch.</desc>
    <defs>
        <linearGradient x1="6.14370365%" y1="100%" x2="50%" y2="100%" id="linearGradient-1">
            <stop stop-color="#8EC5E9" stop-opacity="0" offset="0%"></stop>
            <stop stop-color="#9ACAE9" offset="100%"></stop>
        </linearGradient>
    </defs>
    <g id="Page-1" stroke="none" stroke-width="1" fill="none" fill-rule="evenodd">
        <g id="首页-B3到1F-告警" transform="translate(-37.000000, -491.000000)">
            <g id="车位与车流量" transform="translate(-12.000000, 380.000000)">
                <g id="Group-13" transform="translate(0.000000, 41.000000)">
                    <g id="圆圈背景2">
                        <g id="Group-10" transform="translate(154.043419, 156.511403) rotate(-160.000000) translate(-154.043419, -156.511403) translate(35.543419, 34.011403)">
                            <path d="M14.1753183,30.6786068 C46.2319007,49.9008452 67.6870157,84.9878419 67.6870157,125.085949 C67.6870157,160.081833 51.344571,191.260734 25.8749915,211.407342 L5.00334523,189.599684 C24.8228383,175.038937 37.6870157,151.564738 37.6870157,125.085949 C37.6870157,96.4398215 22.6307371,71.3102762 6.87450097e-13,57.1791333 L14.1753183,30.6786068 Z" id="Combined-Shape" stroke="#1C2F3B" transform="translate(33.843508, 121.042975) rotate(180.000000) translate(-33.843508, -121.042975) "></path>
                            <path d="M192.118372,146.645858 C183.393972,130.882214 178.427348,112.749706 178.427348,93.4571808 C178.427348,83.1855929 179.835204,73.2428274 182.468478,63.8113231 L210.435083,75.567985 C209.121269,81.3196244 208.427348,87.3073656 208.427348,93.4571808 C208.427348,108.638662 212.656118,122.83246 220,134.924919 L192.118372,146.645858 Z" id="Combined-Shape" stroke="#1C2F3B" transform="translate(199.213674, 105.228590) rotate(180.000000) translate(-199.213674, -105.228590) "></path>
                            <path d="M72.4132348,34.709576 L84.0618464,7 C92.1959142,9.78636897 100.921353,11.2986346 110,11.2986346 C119.078647,11.2986346 127.804086,9.78636897 135.938154,7 L147.586765,34.709576 C135.859177,38.9731839 123.201158,41.2986346 110,41.2986346 C96.7988424,41.2986346 84.1408228,38.9731839 72.4132348,34.709576 Z" id="Combined-Shape" stroke="#1C2F3B" transform="translate(110.000000, 24.149317) rotate(180.000000) translate(-110.000000, -24.149317) "></path>
                            <path d="M192.118372,146.645858 C183.393972,130.882214 178.427348,112.749706 178.427348,93.4571808 C178.427348,83.1855929 179.835204,73.2428274 182.468478,63.8113231 L210.435083,75.567985 C209.121269,81.3196244 208.427348,87.3073656 208.427348,93.4571808 C208.427348,108.638662 212.656118,122.83246 220,134.924919 L192.118372,146.645858 Z" id="Combined-Shape-Copy-4" stroke="#1C2F3B" transform="translate(199.213674, 105.228590) rotate(180.000000) translate(-199.213674, -105.228590) "></path>
                            <path d="M231.540585,194.540585 C231.540585,144.834957 191.246212,104.540585 141.540585,104.540585 C91.8349571,104.540585 51.5405845,144.834957 51.5405845,194.540585" id="Combined-Shape" stroke="#213542" transform="translate(141.540585, 149.540585) scale(-1, 1) rotate(225.000000) translate(-141.540585, -149.540585) "></path>
                            <circle id="Oval-4" fill="#314552" transform="translate(172.000000, 53.000000) rotate(180.000000) translate(-172.000000, -53.000000) " cx="172" cy="53" r="4"></circle>
                            <circle id="Oval-4-Copy" fill="#314552" transform="translate(199.000000, 105.000000) rotate(180.000000) translate(-199.000000, -105.000000) " cx="199" cy="105" r="4"></circle>
                            <circle id="Oval-4-Copy-2" fill="#314552" transform="translate(200.000000, 113.000000) rotate(180.000000) translate(-200.000000, -113.000000) " cx="200" cy="113" r="4"></circle>
                            <circle id="Oval-4-Copy-3" fill="#314552" transform="translate(185.000000, 167.000000) rotate(180.000000) translate(-185.000000, -167.000000) " cx="185" cy="167" r="4"></circle>
                            <circle id="Oval-4-Copy-6" fill="#314552" transform="translate(88.000000, 205.000000) rotate(180.000000) translate(-88.000000, -205.000000) " cx="88" cy="205" r="4"></circle>
                            <circle id="Oval-4-Copy-4" fill="#314552" transform="translate(156.000000, 195.000000) rotate(180.000000) translate(-156.000000, -195.000000) " cx="156" cy="195" r="4"></circle>
                            <circle id="Oval-4-Copy-5" fill="#314552" transform="translate(149.000000, 199.000000) rotate(180.000000) translate(-149.000000, -199.000000) " cx="149" cy="199" r="4"></circle>
                            <path d="M56.3566007,181.161097 L38.3748363,183.742634 C37.7741406,183.828872 37.1667793,183.637709 36.7237632,183.222969 C34.0778375,180.745925 31.1659344,177.400694 27.9880538,173.187275 C25.2099508,169.503904 22.5942344,165.641847 20.1409046,161.601103 L20.140889,161.601112 C19.5676327,160.656934 19.8683248,159.42681 20.8125035,158.853553 C21.1253971,158.663581 21.4844264,158.563122 21.8504757,158.563122 L40.6652971,158.563117 C41.4160381,158.563117 42.1035494,158.983545 42.4456225,159.651825 C43.7214181,162.144243 45.9682996,165.218487 49.186267,168.874557 C51.9448831,172.008738 54.7132897,174.974577 57.4914867,177.772075 C58.2698369,178.55582 58.2654533,179.822148 57.4817022,180.600492 C57.1766661,180.903423 56.7821385,181.100005 56.3566007,181.161097 Z" id="Rectangle-2" fill="#37506D"></path>
                            <path d="M34.4444384,151.418325 L18.2387575,151.41833 C17.3962472,151.41833 16.6440822,150.890349 16.3577757,150.097978 C14.9679859,146.251647 13.5953924,141.551208 12.2399952,135.996661 C10.9750357,130.812736 9.89146318,125.566839 8.98927757,120.25897 L8.98930052,120.258966 C8.80421215,119.170027 9.53692767,118.137224 10.6258664,117.952136 C10.9257504,117.901164 11.2333102,117.919269 11.5251429,118.005072 L28.9368564,123.124393 C29.7663591,123.368279 30.3452207,124.117588 30.3717492,124.981794 C30.4568914,127.75543 31.1267995,131.427053 32.3814735,135.996661 C33.5986844,140.429826 34.9160283,144.684764 36.3335052,148.761474 L36.3335244,148.761467 C36.6962856,149.804781 36.1445892,150.944629 35.1012758,151.30739 C34.8900709,151.380827 34.6680462,151.418325 34.4444384,151.418325 Z" id="Rectangle-2-Copy" fill="#37506D"></path>
                            <path d="M27.4815504,115.92882 L12.505344,109.984009 C11.7259518,109.67463 11.2223145,108.911897 11.2439046,108.073624 C11.3317656,104.662272 11.9730708,99.9478081 13.1678202,93.9302331 C14.3321263,88.0659912 15.7572535,82.2978043 17.4432016,76.6256722 C17.757908,75.5668827 18.8713472,74.9636854 19.9301364,75.2783931 C20.2081654,75.3610327 20.4648928,75.503157 20.6825163,75.6949107 L34.357222,87.7440756 C35.005936,88.3156743 35.2138912,89.2394162 34.8727051,90.0338638 C33.7776807,92.5836149 32.833129,96.1943503 32.0390499,100.86607 C31.2587484,105.456733 30.6488306,109.925091 30.2092964,114.271145 L30.209312,114.271146 C30.0981684,115.370119 29.1171757,116.170912 28.0182034,116.059769 C27.8341233,116.041152 27.6535167,115.997082 27.4815504,115.92882 Z" id="Rectangle-2-Copy-3" fill="#37506D"></path>
                            <path d="M22.0229198,51.5327071 L35.8042414,43.4468778 C36.5759823,42.9940775 37.5545765,43.1089723 38.2004513,43.7282121 C41.0690115,46.4784766 44.4046056,50.3073898 48.2072335,55.2149518 C51.8691795,59.9409536 55.2875179,64.8007819 58.4622488,69.7944365 L58.46225,69.7944358 C59.0548615,70.7265769 58.7796184,71.9626331 57.8474773,72.5552446 C57.6027049,72.7108594 57.327014,72.8113721 57.0395219,72.8498129 L38.9744876,75.2652808 C38.1175018,75.379869 37.2839141,74.9307855 36.908175,74.1520846 C35.7022541,71.652872 33.5968792,68.5711542 30.5920504,64.9069312 C27.6075194,61.2674603 24.603089,57.8413464 21.578759,54.6285893 L21.5787479,54.6285999 C20.8216349,53.824316 20.8598746,52.5585538 21.6641585,51.8014409 C21.7732978,51.6987025 21.8936406,51.6085586 22.0229198,51.5327071 Z" id="Rectangle-2-Copy-4" fill="#37506D" transform="translate(39.904863, 59.227428) rotate(256.000000) translate(-39.904863, -59.227428) "></path>
                            <path d="M56.467451,26.3483845 L70.2487726,18.2625552 C71.0205135,17.8097549 71.9991077,17.9246497 72.6449825,18.5438895 C75.5135427,21.294154 78.8491368,25.1230672 82.6517647,30.0306292 C86.3137107,34.756631 89.7320491,39.6164593 92.90678,44.6101139 L92.9067812,44.6101132 C93.4993927,45.5422543 93.2241496,46.7783105 92.2920085,47.370922 C92.0472361,47.5265368 91.7715452,47.6270495 91.4840531,47.6654903 L73.4190188,50.0809582 C72.562033,50.1955464 71.7284453,49.746463 71.3527062,48.967762 C70.1467853,46.4685494 68.0414104,43.3868316 65.0365816,39.7226086 C62.0520506,36.0831377 59.0476202,32.6570238 56.0232903,29.4442667 L56.0232791,29.4442773 C55.2661661,28.6399934 55.3044058,27.3742312 56.1086897,26.6171183 C56.217829,26.5143799 56.3381718,26.424236 56.467451,26.3483845 Z" id="Rectangle-2-Copy-5" fill="#37506D" transform="translate(74.349394, 34.043105) rotate(282.000000) translate(-74.349394, -34.043105) "></path>
                            <path d="M98.4071435,18.9919153 L111.477521,9.88614192 C112.279835,9.32719205 113.368674,9.43031636 114.051786,10.1299514 C117.409185,13.5685568 121.010157,17.768689 124.854702,22.730348 C128.516648,27.4563498 131.934987,32.3161781 135.109718,37.3098327 L135.109719,37.309832 C135.70233,38.2419731 135.427087,39.4780293 134.494946,40.0706408 C134.250174,40.2262556 133.974483,40.3267683 133.686991,40.365209 L115.621956,42.780677 C114.764971,42.8952652 113.931383,42.4461817 113.555644,41.6674808 C112.349723,39.1682682 110.244348,36.0865504 107.239519,32.4223274 C104.21201,28.7304474 101.164025,25.2581134 98.0955626,22.0053252 L98.0955689,22.0053193 C97.3376209,21.2018406 97.3745309,19.9360541 98.1780097,19.1781061 C98.249696,19.110482 98.3262826,19.0482489 98.4071435,18.9919153 Z" id="Rectangle-2-Copy-6" fill="#37506D" transform="translate(116.486291, 26.162767) rotate(311.000000) translate(-116.486291, -26.162767) "></path>
                        </g>
                        <g id="Group-5" transform="translate(159.750000, 164.566987) rotate(150.000000) translate(-159.750000, -164.566987) translate(84.750000, 89.066987)">
                            <path d="M75,149.176759 C33.5786438,149.176759 0,116.004779 0,75.0850682 C0,34.1653573 33.5786438,0.993377483 75,0.993377483 C116.421356,0.993377483 150,34.1653573 150,75.0850682 C150,116.004779 116.421356,149.176759 75,149.176759 Z M75,139.862375 C111.2141,139.862375 140.571429,110.860587 140.571429,75.0850682 C140.571429,39.3095496 111.2141,10.3077615 75,10.3077615 C38.7859,10.3077615 9.42857143,39.3095496 9.42857143,75.0850682 C9.42857143,110.860587 38.7859,139.862375 75,139.862375 Z" id="Combined-Shape" fill-opacity="0.1" fill="#0E7CC2"></path>
                            <path d="M34.5837167,109.890986 C34.5819065,109.678749 34.5809996,109.466299 34.5809996,109.25364 C34.5809996,68.3339287 68.1596433,35.1619489 109.581,35.1619489 C151.002356,35.1619489 184.581,68.3339287 184.581,109.25364 C184.581,109.447737 184.580244,109.64166 184.578736,109.835405 C184.584519,109.927357 184.587453,110.020559 184.587453,110.114969 C184.587453,112.615618 182.528971,115.016327 179.997666,115.016327 C177.46769,115.016327 175.158645,112.576156 175.156221,110.076881 L175.152428,110.076881 C175.150696,109.802873 175.152428,109.528456 175.152428,109.25364 C175.152428,73.478121 145.7951,44.4763328 109.581,44.4763328 C73.3668995,44.4763328 44.009571,73.478121 44.009571,109.25364 C44.009571,109.528456 44.0113033,109.802873 44.0147578,110.076881 L43.9984738,110.076881 C43.9984939,110.082104 43.998504,110.087331 43.998504,110.092562 C43.998504,112.593211 41.695638,115.016327 39.1643329,115.016327 C36.6330278,115.016327 34.5792139,112.593211 34.5792139,110.092562 C34.5792139,110.024725 34.5807253,109.957528 34.5837167,109.890986 Z" id="Combined-Shape" fill="url(#linearGradient-1)" transform="translate(109.583333, 75.089138) rotate(90.000000) translate(-109.583333, -75.089138) "></path>
                        </g>
                        <path d="M160,220 C190.375661,220 215,195.375661 215,165 C215,134.624339 190.375661,110 160,110 C129.624339,110 105,134.624339 105,165 C105,195.375661 129.624339,220 160,220 Z" id="Oval-Copy" stroke="#182329" stroke-width="10" stroke-dasharray="1,8,1,8" transform="translate(160.000000, 165.000000) rotate(180.000000) translate(-160.000000, -165.000000) "></path>
                        <path d="M161,220 C191.375661,220 216,195.375661 216,165 C216,134.624339 191.375661,110 161,110 C130.624339,110 106,134.624339 106,165 C106,195.375661 130.624339,220 161,220 Z" id="Oval-Copy-2" stroke="#182329" stroke-width="5" stroke-dasharray="1,8,1,8" transform="translate(161.000000, 165.000000) rotate(185.000000) translate(-161.000000, -165.000000) "></path>
                    </g>
                </g>
            </g>
        </g>
    </g>
</svg>