<?xml version="1.0" encoding="UTF-8"?>
<svg width="32px" height="30px" viewBox="0 0 32 30" version="1.1" xmlns="http://www.w3.org/2000/svg" xmlns:xlink="http://www.w3.org/1999/xlink">
    <!-- Generator: Sketch 51.3 (57544) - http://www.bohemiancoding.com/sketch -->
    <title>车辆</title>
    <desc>Created with Sketch.</desc>
    <defs></defs>
    <g id="Page-1" stroke="none" stroke-width="1" fill="none" fill-rule="evenodd">
        <g id="首页-B3到1F-告警" transform="translate(-47.000000, -765.000000)" fill="#B9E0F9" fill-rule="nonzero">
            <g id="车位与车流量" transform="translate(-12.000000, 380.000000)">
                <g id="Group-19" transform="translate(59.000000, 372.000000)">
                    <g id="车辆" transform="translate(0.000000, 10.000000)">
                        <rect id="Rectangle-path" opacity="0" x="0" y="0" width="36" height="36"></rect>
                        <path d="M28.9793543,13.6034484 L31.0673365,12.6224863 C31.5585734,12.3912482 31.7696538,11.8059897 31.5393876,11.3156887 C31.3081495,10.8244517 30.7238269,10.6133713 30.2325899,10.8436375 L27.928668,11.9260363 L27.4472579,6.31876431 C27.4472579,5.02251351 26.392792,3.9680836 25.0965772,3.96808356 L6.62301422,3.96808356 C5.32676342,3.96808356 4.27136161,5.02254947 4.27521319,6.23528966 L3.79358712,11.8803934 L1.58678227,10.8436015 C1.09936087,10.6143072 0.512158645,10.8234437 0.279984625,11.3156527 C0.0497184297,11.8059537 0.26079877,12.3912122 0.752035785,12.6224503 L2.83681428,13.6019006 C1.7069728,13.6907746 0.814488789,14.6353088 0.816324578,15.7282544 L0.191722539,25.3814733 C0.191722539,26.5932775 1.17711218,27.5786672 2.38794455,27.5786672 L3.12291025,27.5786672 L3.12291025,29.9005871 C3.12291025,31.2956469 4.25797113,32.4307078 5.65303086,32.4307078 L7.27547713,32.4307078 C8.6705369,32.4307078 9.80559777,31.2956469 9.80559777,29.9005871 L9.80559777,27.5786672 L21.9399467,27.5786672 L21.9399467,29.9005871 C21.9399467,31.2956469 23.0750076,32.4307078 24.4700673,32.4307078 L26.0934855,32.4307078 C27.4885453,32.4307078 28.6236062,31.2956469 28.6236062,29.9005871 L28.6236062,27.5786672 L29.4084623,27.5786672 C30.6202665,27.5786672 31.6056562,26.5932775 31.6037124,25.3181564 L30.9829259,15.7916073 C30.9829259,14.6450638 30.1007007,13.7018254 28.9793543,13.6034484 Z M6.62301422,5.93306748 L25.0966132,5.93306748 C25.3096013,5.93306748 25.48231,6.10577615 25.4861615,6.40223896 L26.1006487,13.5944134 L5.61858272,13.5944134 L6.23638154,6.31876431 C6.23634554,6.10577618 6.41002609,5.93306752 6.62301422,5.93306748 Z M7.84057785,29.9005511 C7.84057785,30.2123842 7.58727422,30.4656878 7.27544117,30.4656878 L5.65299486,30.4656878 C5.34116177,30.4656878 5.08785814,30.2123842 5.08785817,29.9005511 L5.08785817,27.5786312 L7.84057785,27.5786312 L7.84057785,29.9005511 Z M26.6586222,29.9005511 C26.6586222,30.2123842 26.4053186,30.4656878 26.0934855,30.4656878 L24.4700673,30.4656878 C24.1582343,30.4656878 23.9049306,30.2123842 23.9049307,29.9005511 L23.9049307,27.5786312 L26.6585862,27.5786312 L26.6585862,29.9005511 L26.6586222,29.9005511 Z M29.4084263,25.6136473 L2.38794455,25.6136473 C2.26033886,25.6136473 2.15670646,25.509079 2.15479867,25.4447902 L2.77940071,15.7916073 C2.77940071,15.6640016 2.88303311,15.5593973 3.0106388,15.5593973 L28.785768,15.5593973 C28.9133737,15.5593973 29.017942,15.6639656 29.0198858,15.8549243 L29.6406723,25.3814733 C29.6406363,25.509079 29.536032,25.6136473 29.4084263,25.6136473 Z" id="Shape"></path>
                        <path d="M8.04877854,17.5925216 C6.18166765,17.5925216 4.66184588,19.1123074 4.66184588,20.9794543 C4.66184588,22.8465652 6.18163165,24.366387 8.04877854,24.366387 C9.91588943,24.366387 11.4357112,22.8466012 11.4357112,20.9794543 C11.4357112,19.1123074 9.91592543,17.5925216 8.04877854,17.5925216 Z M8.04877854,22.401367 C7.26489433,22.401367 6.6268658,21.7633385 6.6268658,20.9794543 C6.6268658,20.1955701 7.26489433,19.5575056 8.04877854,19.5575056 C8.83266276,19.5575056 9.47072729,20.1955341 9.47072729,20.9794543 C9.47072729,21.7633385 8.83266276,22.401367 8.04877854,22.401367 Z M23.446306,17.5925216 C21.5782232,17.5925216 20.0584375,19.1123074 20.0584375,20.9794543 C20.0584375,22.8465652 21.5782232,24.366387 23.446306,24.366387 C25.3134169,24.366387 26.8332387,22.8466012 26.8332387,20.9794543 C26.8332387,19.1123074 25.3134169,17.5925216 23.446306,17.5925216 Z M23.446306,22.401367 C22.6614499,22.401367 22.0234214,21.7633385 22.0234214,20.9794543 C22.0234214,20.1955701 22.6614499,19.5575056 23.446306,19.5575056 C24.2301902,19.5575056 24.8682548,20.1955341 24.8682548,20.9794543 C24.8682548,21.7633385 24.2301902,22.401367 23.446306,22.401367 Z" id="Shape"></path>
                    </g>
                </g>
            </g>
        </g>
    </g>
</svg>