<?xml version="1.0" encoding="UTF-8"?>
<svg width="44px" height="40px" viewBox="0 0 44 40" version="1.1" xmlns="http://www.w3.org/2000/svg" xmlns:xlink="http://www.w3.org/1999/xlink">
    <!-- Generator: Sketch 51.3 (57544) - http://www.bohemiancoding.com/sketch -->
    <title>设备</title>
    <desc>Created with Sketch.</desc>
    <defs></defs>
    <g id="Page-1" stroke="none" stroke-width="1" fill="none" fill-rule="evenodd">
        <g id="首页-B3到1F-告警" transform="translate(-1964.000000, -59.000000)" fill="#B9E0F9" fill-rule="nonzero">
            <g id="设备与能耗" transform="translate(1940.000000, 20.000000)">
                <g id="Group-30" transform="translate(22.000000, 34.000000)">
                    <g id="设备" transform="translate(0.000000, 1.000000)">
                        <rect id="Rectangle-path" opacity="0" x="0" y="0" width="48" height="48"></rect>
                        <path d="M44.4,4.8 L3.6,4.8 C2.88,4.8 2.4,5.28 2.4,6 L2.4,42 C2.4,42.72 2.88,43.2 3.6,43.2 L44.4,43.2 C45.12,43.2 45.6,42.72 45.6,42 L45.6,6 C45.6,5.28 45.12,4.8 44.4,4.8 Z M43.2,7.2 L43.2,31.2 L4.8,31.2 L4.8,7.2 L43.2,7.2 Z M4.8,40.8 L4.8,33.6 L43.2,33.6 L43.2,40.8 L4.8,40.8 Z M25.2,36 L8.4,36 C7.8,36 7.2,36.6 7.2,37.2 C7.2,37.8 7.8,38.4 8.4,38.4 L25.2,38.4 C25.8,38.4 26.4,37.8 26.4,37.2 C26.4,36.6 25.8,36 25.2,36 Z M39.6,36 L32.4,36 C31.8,36 31.2,36.48 31.2,37.2 C31.2,37.8 31.8,38.4 32.4,38.4 L39.6,38.4 C40.2,38.4 40.8,37.8 40.8,37.2 C40.8,36.48 40.2,36 39.6,36 Z M8.4,21.6 L13.2,21.6 C13.68,21.6 14.04,21.36 14.28,20.88 L18,13.44 L25.32,28.08 C25.56,28.44 25.92,28.8 26.4,28.8 C26.88,28.8 27.24,28.56 27.48,28.08 L32.4,18.24 L33.72,20.88 C33.96,21.24 34.32,21.6 34.8,21.6 L39.6,21.6 C40.32,21.6 40.8,21.12 40.8,20.4 C40.8,19.68 40.32,19.2 39.6,19.2 L35.52,19.2 L33.48,15.12 C33.12,14.28 31.68,14.28 31.32,15.12 L26.4,24.96 L19.08,10.32 C18.72,9.48 17.28,9.48 16.92,10.32 L12.48,19.2 L8.4,19.2 C7.68,19.2 7.2,19.68 7.2,20.4 C7.2,21.12 7.68,21.6 8.4,21.6 Z" id="Shape"></path>
                    </g>
                </g>
            </g>
        </g>
    </g>
</svg>