<?xml version="1.0" encoding="UTF-8"?>
<svg width="104px" height="84px" viewBox="0 0 104 84" version="1.1" xmlns="http://www.w3.org/2000/svg" xmlns:xlink="http://www.w3.org/1999/xlink">
    <!-- Generator: Sketch 51.3 (57544) - http://www.bohemiancoding.com/sketch -->
    <title>天气-多云</title>
    <desc>Created with Sketch.</desc>
    <defs></defs>
    <g id="Page-1" stroke="none" stroke-width="1" fill="none" fill-rule="evenodd">
        <g id="首页-B3到1F-告警" transform="translate(-50.000000, -56.000000)" fill-rule="nonzero">
            <g id="环境" transform="translate(20.000000, 20.000000)">
                <g id="天气-多云" transform="translate(22.000000, 21.000000)">
                    <rect id="Rectangle-path" fill="#000000" opacity="0" x="0" y="0" width="120" height="120"></rect>
                    <path d="M54,51.4999998 C53.9999998,59.5384756 58.2884756,66.9663336 65.2499999,70.9855715 C72.2115242,75.0048095 80.7884758,75.0048095 87.7500001,70.9855715 C94.7115244,66.9663336 99.0000002,59.5384756 99,51.4999998 C99,39.073593 88.9264069,29 76.5,29 C64.0735931,29 54,39.073593 54,51.4999998 Z" id="Shape" fill="#EDA915"></path>
                    <path d="M76.9855521,23.1751227 C75.9643195,23.1751227 75.1833769,22.3273322 75.1833769,21.3584288 L75.1833769,16.8166939 C75.1833769,15.787234 76.024392,15 76.9855521,15 C78.0067848,15 78.7877274,15.8477905 78.7877274,16.8166939 L78.7877274,21.3584288 C78.7877274,22.3273322 78.0067848,23.1751227 76.9855521,23.1751227 Z M60.1652497,28.685761 C59.3843071,29.2913257 58.1828569,29.1096563 57.6422043,28.2618658 L54.9990139,24.6284779 C54.3982888,23.8412439 54.5785064,22.6301146 55.4195215,22.0851064 C56.2004641,21.4795417 57.4019143,21.6612111 57.9425668,22.5090016 L60.5857572,26.1423895 C61.1864823,26.9296236 61.0062648,28.0801964 60.1652497,28.685761 Z M49.7727056,60.9018003 C50.0730682,61.8707038 49.5324156,62.9001637 48.631328,63.202946 L44.3661799,64.5957447 C43.4050197,64.898527 42.3837871,64.3535188 42.0834245,63.4451718 C41.783062,62.4762684 42.3237146,61.4468085 43.2248022,61.1440262 L47.4899503,59.7512275 C48.4511105,59.3878887 49.4723431,59.9328969 49.7727056,60.9018003 Z M60.1652497,75.314239 C60.9461923,75.9198036 61.1264098,77.0703764 60.5857572,77.8576105 L57.9425668,81.4909984 C57.3418418,82.2782324 56.2004641,82.4599018 55.4195215,81.9148936 C54.6385789,81.309329 54.4583613,80.1587561 54.9990139,79.3715221 L57.6422043,75.7381342 C58.2429294,74.8903437 59.3843071,74.7086743 60.1652497,75.314239 Z M76.9855521,80.8248773 C78.0067848,80.8248773 78.7877274,81.6726678 78.7877274,82.6415712 L78.7877274,87.1833061 C78.7877274,88.212766 77.9467123,89 76.9855521,89 C75.9643195,89 75.1833769,88.1522095 75.1833769,87.1833061 L75.1833769,82.6415712 C75.1833769,81.6121113 75.9643195,80.8248773 76.9855521,80.8248773 Z M93.8058546,75.314239 C94.5867972,74.7086743 95.7882474,74.8903437 96.3289,75.7381342 L98.9720903,79.3715221 C99.5728154,80.1587561 99.3925979,81.3698854 98.5515828,81.9148936 C97.7706402,82.5204583 96.56919,82.3387889 96.0285374,81.4909984 L93.385347,77.8576105 C92.7846219,77.0703764 92.9648395,75.9198036 93.8058546,75.314239 Z M104.198399,60.9018003 C104.498761,59.9328969 105.519994,59.3878887 106.481154,59.7512275 L110.746302,61.1440262 C111.707462,61.4468085 112.248115,62.4762684 111.88768,63.4451718 C111.587317,64.4140753 110.566085,64.9590835 109.604924,64.5957447 L105.339776,63.202946 C104.378616,62.9001637 103.898036,61.8707038 104.198399,60.9018003 Z M104.198399,43.0981997 C103.898036,42.1292962 104.438689,41.0998363 105.339776,40.797054 L109.604924,39.4042553 C110.566085,39.101473 111.587317,39.6464812 111.88768,40.5548282 C112.188042,41.5237316 111.64739,42.5531915 110.746302,42.8559738 L106.481154,44.2487725 C105.519994,44.5515548 104.498761,44.0671031 104.198399,43.0981997 Z M93.8058546,28.685761 C93.024912,28.0801964 92.8446944,26.9296236 93.385347,26.1423895 L96.0285374,22.5090016 C96.6292625,21.7217676 97.7706402,21.5400982 98.5515828,22.0851064 C99.3325254,22.690671 99.5127429,23.8412439 98.9720903,24.6284779 L96.3289,28.2618658 C95.7281749,29.0490998 94.5867972,29.2913257 93.8058546,28.685761 Z" id="Shape" fill="#EDA915"></path>
                    <path d="M101,79 C101,67.9820359 91.3494318,59 79.5,59 C67.6505682,59 58,67.9221557 58,79 L58,99 L79.7443182,99 C91.4715909,98.8203593 101,89.9580838 101,79 Z" id="Shape" fill="#EAEAEA"></path>
                    <path d="M86,77.9156627 C86,71.5301205 83.1310345,65.8072289 78.6482759,61.8915663 C78.708046,61.2891566 78.7678161,60.686747 78.7678161,60.0843373 C78.7678161,48.4578313 69.3241379,39 57.7287356,39 C46.1333333,39 36.6896552,48.4578313 36.6896552,60.0843373 C36.6896552,60.2650602 36.6896552,60.5060241 36.7494253,60.686747 C34.1195402,59.3614458 31.1310345,58.6385542 28.0229885,58.6385542 C16.9655172,58.6385542 8,67.6746988 8,78.8192771 C8,89.7228916 16.6068966,98.5783133 27.3655172,98.939759 L27.3655172,99 L65.9770115,99 L65.9770115,98.939759 C77.0344828,98.4578313 86,89.2409639 86,77.9156627 Z" id="Shape" fill="#F7F7F7"></path>
                </g>
            </g>
        </g>
    </g>
</svg>