<?xml version="1.0" encoding="UTF-8"?>
<svg width="20px" height="36px" viewBox="0 0 20 36" version="1.1" xmlns="http://www.w3.org/2000/svg" xmlns:xlink="http://www.w3.org/1999/xlink">
    <!-- Generator: Sketch 51.3 (57544) - http://www.bohemiancoding.com/sketch -->
    <title>电</title>
    <desc>Created with Sketch.</desc>
    <defs></defs>
    <g id="Page-1" stroke="none" stroke-width="1" fill="none" fill-rule="evenodd">
        <g id="首页-B3到1F-告警" transform="translate(-1981.000000, -397.000000)" fill="#B9E0F9" fill-rule="nonzero">
            <g id="设备与能耗" transform="translate(1940.000000, 20.000000)">
                <g id="电能耗" transform="translate(30.000000, 368.000000)">
                    <g id="电" transform="translate(3.000000, 9.000000)">
                        <rect id="Rectangle-path" opacity="0" x="0" y="0" width="36" height="36"></rect>
                        <path d="M27.90294,12.570862 C27.7375525,12.221732 27.3856864,11.9992572 26.9993644,11.9995573 L20.3658227,11.9995573 L26.6566536,1.51447929 C26.8422143,1.20557796 26.8471692,0.820715721 26.6696226,0.507139553 C26.4920761,0.193563385 26.1595075,-0.000193355934 25.7991566,-6.24500187e-17 L16.1996548,-6.24500187e-17 C15.7906039,4.04161596e-05 15.4227835,0.249103334 15.2708797,0.62890309 L8.07107333,18.6284191 C7.94792581,18.9365384 7.98562663,19.2856762 8.17171148,19.5604038 C8.35779634,19.8351314 8.66803092,19.9996703 8.99984837,19.9996222 L13.5566059,19.9996222 L8.06387354,34.6476283 C7.89125937,35.1062653 8.07641113,35.6224186 8.50119417,35.8667604 C8.92597721,36.1111023 9.46523892,36.011643 9.77490752,35.6318419 L27.7744235,13.6324734 C28.0188341,13.33318 28.0688733,12.9198308 27.90294,12.570862 Z M12.0651659,29.6740021 L15.9361419,19.3509197 C16.0513712,19.0438494 16.0087076,18.6997947 15.8219666,18.4301694 C15.6352256,18.1605442 15.3281456,17.9996229 15.000167,17.999516 L10.4758087,17.999516 L16.8767966,2.00010621 L24.0326841,2.00010621 L17.7418533,12.4851843 C17.5562926,12.7940856 17.5513377,13.1789478 17.7288843,13.492524 C17.9064308,13.8061002 18.2389994,13.9998569 18.5993503,13.9996635 L24.8891011,13.9996635 L12.0651659,29.6740021 Z" id="Shape"></path>
                    </g>
                </g>
            </g>
        </g>
    </g>
</svg>