<?xml version="1.0" encoding="UTF-8"?>
<svg width="30px" height="30px" viewBox="0 0 30 30" version="1.1" xmlns="http://www.w3.org/2000/svg" xmlns:xlink="http://www.w3.org/1999/xlink">
    <!-- Generator: Sketch 51.3 (57544) - http://www.bohemiancoding.com/sketch -->
    <title>停车位</title>
    <desc>Created with Sketch.</desc>
    <defs></defs>
    <g id="Page-1" stroke="none" stroke-width="1" fill="none" fill-rule="evenodd">
        <g id="首页-B3到1F-告警" transform="translate(-50.000000, -424.000000)" fill="#B9E0F9" fill-rule="nonzero">
            <g id="车位与车流量" transform="translate(-12.000000, 380.000000)">
                <g id="Group-30" transform="translate(59.000000, 33.000000)">
                    <g id="停车位" transform="translate(0.000000, 7.000000)">
                        <rect id="Rectangle-path" opacity="0" x="0" y="0" width="36" height="36"></rect>
                        <path d="M18,4.32 C10.0584,4.32 3.6,10.7784 3.6,18.72 C3.6,26.6616 10.0584,33.12 18,33.12 C25.9416,33.12 32.4,26.6616 32.4,18.72 C32.4,10.7784 25.9416,4.32 18,4.32 Z M18,31.32 C11.052,31.32 5.4,25.668 5.4,18.72 C5.4,11.772 11.052,6.12 18,6.12 C24.948,6.12 30.6,11.772 30.6,18.72 C30.6,25.668 24.948,31.32 18,31.32 Z M19.548,11.628 L13.716,11.628 L13.716,26.028 L15.516,26.028 L15.516,20.628 L19.548,20.628 C22.176,20.628 23.5692,18.7056 23.724,15.9732 C23.6196,13.446 22.23,11.628 19.548,11.628 Z M18.8532,18.828 L15.516,18.828 L15.516,13.428 L18.9288,13.428 C20.8368,13.428 21.7908,14.5044 21.7908,16.0524 C21.7908,17.7516 20.8116,18.828 18.8532,18.828 Z" id="Shape"></path>
                    </g>
                </g>
            </g>
        </g>
    </g>
</svg>