<?xml version="1.0" encoding="UTF-8"?>
<svg width="32px" height="33px" viewBox="0 0 32 33" version="1.1" xmlns="http://www.w3.org/2000/svg" xmlns:xlink="http://www.w3.org/1999/xlink">
    <!-- Generator: Sketch 51.3 (57544) - http://www.bohemiancoding.com/sketch -->
    <title>人</title>
    <desc>Created with Sketch.</desc>
    <defs></defs>
    <g id="Page-1" stroke="none" stroke-width="1" fill="none" fill-rule="evenodd">
        <g id="首页-B3到1F-告警" transform="translate(-694.000000, -775.000000)" fill="#B9E0F9" fill-rule="nonzero">
            <g id="人流量" transform="translate(661.000000, 734.000000)">
                <g id="人" transform="translate(31.000000, 39.000000)">
                    <rect id="Rectangle-path" opacity="0" x="0" y="0" width="36" height="36"></rect>
                    <path d="M18.324,1.98 C16.29,1.98 14.634,3.636 14.634,5.67 C14.634,7.704 16.29,9.36 18.324,9.36 C20.358,9.36 22.014,7.704 22.014,5.67 C22.014,3.636 20.358,1.98 18.324,1.98 Z M26.982,5.49 C25.344,5.49 24.03,6.804 24.03,8.442 C24.03,10.08 25.344,11.394 26.982,11.394 C28.62,11.394 29.934,10.062 29.934,8.442 C29.934,6.804 28.62,5.49 26.982,5.49 Z M12.816,20.502 L12.762,21.438 L12.762,21.474 L13.392,32.274 L10.566,32.274 L10.098,23.076 L8.892,23.076 L8.316,32.274 L5.67,32.274 L6.084,21.474 L5.886,17.1 L3.456,20.574 L2.268,19.602 L5.724,11.97 L7.74,11.97 L9.666,14.256 L11.52,11.988 L13.068,11.988 L13.806,10.296 L17.658,10.296 L17.37,10.782 L17.748,11.556 L16.92,17.496 L18.216,18.81 L18.216,18.918 L18.27,18.864 L18.324,18.918 L18.324,18.81 L19.62,17.496 L18.792,11.556 L19.17,10.782 L18.882,10.296 L22.77,10.296 L23.292,11.988 L25.092,11.988 L27.018,14.274 L28.89,11.988 L30.6,11.988 L33.804,19.098 L32.526,20.196 L30.384,16.596 L30.132,21.456 L30.132,21.492 L30.762,32.292 L27.936,32.292 L27.468,23.094 L26.28,23.094 L25.704,32.292 L23.058,32.292 L23.472,21.492 L23.436,20.718 L22.338,21.636 L22.824,34.542 L19.656,34.542 L18.954,23.544 L17.514,23.544 L16.956,34.542 L13.608,34.542 L14.346,21.636 L12.816,20.502 Z M9.594,5.49 C7.956,5.49 6.642,6.804 6.642,8.442 C6.642,10.08 7.974,11.394 9.594,11.394 C11.232,11.394 12.546,10.062 12.546,8.442 C12.564,6.804 11.232,5.49 9.594,5.49 Z" id="Shape"></path>
                </g>
            </g>
        </g>
    </g>
</svg>