<?xml version="1.0" encoding="UTF-8"?>
<svg width="120px" height="120px" viewBox="0 0 120 120" version="1.1" xmlns="http://www.w3.org/2000/svg" xmlns:xlink="http://www.w3.org/1999/xlink">
    <!-- Generator: Sketch 51.3 (57544) - http://www.bohemiancoding.com/sketch -->
    <title>小圈-刻度</title>
    <desc>Created with Sketch.</desc>
    <defs></defs>
    <g id="Page-1-Copy" stroke="none" stroke-width="1" fill="none" fill-rule="evenodd" stroke-dasharray="1,8,1,8">
        <g id="首页-B3到1F-告警" transform="translate(-88.000000, -526.000000)" stroke="#182329">
            <g id="车位与车流量" transform="translate(-12.000000, 380.000000)">
                <g id="圆圈背景2" transform="translate(0.000000, 41.000000)">
                    <g id="小圈-刻度" transform="translate(101.000000, 105.000000)">
                        <path d="M59,115 C89.3756612,115 114,90.3756612 114,60 C114,29.6243388 89.3756612,5 59,5 C28.6243388,5 4,29.6243388 4,60 C4,90.3756612 28.6243388,115 59,115 Z" id="Oval-Copy" stroke-width="10" transform="translate(59.000000, 60.000000) rotate(180.000000) translate(-59.000000, -60.000000) "></path>
                        <path d="M60,115 C90.3756612,115 115,90.3756612 115,60 C115,29.6243388 90.3756612,5 60,5 C29.6243388,5 5,29.6243388 5,60 C5,90.3756612 29.6243388,115 60,115 Z" id="Oval-Copy-2" stroke-width="5" transform="translate(60.000000, 60.000000) rotate(185.000000) translate(-60.000000, -60.000000) "></path>
                    </g>
                </g>
            </g>
        </g>
    </g>
</svg>