<svg xmlns="http://www.w3.org/2000/svg" viewBox="0 0 404.27 49.08"><defs><style>.cls-1{fill:#ff2a30;opacity:0.2;}.cls-2{isolation:isolate;}.cls-3{fill:#a51b1f;}.cls-3,.cls-4,.cls-5,.cls-6,.cls-7,.cls-8,.cls-9{opacity:0.2;}.cls-4{fill:#95181c;}.cls-5{fill:#a21a1f;}.cls-6{fill:#6a1114;}.cls-7{fill:#ac1c20;}.cls-8{fill:#bb1f23;}.cls-9{fill:#be1f24;}</style></defs><title>资源 9</title><g id="图层_2" data-name="图层 2"><g id="图层_1-2" data-name="图层 1"><polygon class="cls-1" points="382.27 49.04 1.27 49.04 26.27 24.04 404.27 26.04 382.27 49.04"/><g id="_1F" data-name="1F"><g class="cls-2"><polygon class="cls-3" points="319.87 7.43 321.21 26.75 320.06 26.75 318.72 7.43 319.87 7.43"/><polygon class="cls-3" points="325.67 7.43 327.01 26.75 321.21 26.75 319.87 7.43 325.67 7.43"/><polygon class="cls-3" points="326.83 7.43 328.17 26.75 327.01 26.75 325.67 7.43 326.83 7.43"/><polygon class="cls-3" points="336.26 7.43 337.6 26.75 328.17 26.75 326.83 7.43 336.26 7.43"/><polygon class="cls-3" points="336.84 7.43 338.18 26.75 337.6 26.75 336.26 7.43 336.84 7.43"/><polygon class="cls-3" points="345.37 7.43 346.71 26.75 338.18 26.75 336.84 7.43 345.37 7.43"/><polygon class="cls-3" points="346.53 7.43 347.87 26.75 346.71 26.75 345.37 7.43 346.53 7.43"/><polygon class="cls-3" points="352.33 7.43 353.67 26.75 347.87 26.75 346.53 7.43 352.33 7.43"/><polygon class="cls-3" points="353.48 7.43 354.82 26.75 353.67 26.75 352.33 7.43 353.48 7.43"/><polygon class="cls-3" points="358.12 7.43 359.45 26.75 354.82 26.75 353.48 7.43 358.12 7.43"/><polygon class="cls-3" points="359.27 7.43 360.61 26.75 359.45 26.75 358.12 7.43 359.27 7.43"/><polygon class="cls-3" points="372.02 7.43 373.37 26.75 360.61 26.75 359.27 7.43 372.02 7.43"/><polygon class="cls-4" points="318.72 7.43 319.05 7.09 373.52 7.09 373.18 7.43 372.02 7.43 359.27 7.43 358.12 7.43 353.48 7.43 352.33 7.43 346.53 7.43 345.37 7.43 336.84 7.43 336.26 7.43 326.83 7.43 325.67 7.43 319.87 7.43 318.72 7.43"/><polygon class="cls-3" points="373.18 7.43 374.52 26.75 373.37 26.75 372.02 7.43 373.18 7.43"/><polygon class="cls-5" points="373.52 7.09 374.86 26.4 374.52 26.75 373.18 7.43 373.52 7.09"/></g><polygon class="cls-6" points="325.67 7.43 327.01 26.75 321.21 26.75 319.87 7.43 325.67 7.43"/><g class="cls-2"><polygon class="cls-6" points="336.26 7.43 337.6 26.75 328.17 26.75 326.83 7.43 336.26 7.43"/><polygon class="cls-6" points="345.37 7.43 346.71 26.75 338.18 26.75 336.84 7.43 345.37 7.43"/></g><g class="cls-2"><polygon class="cls-6" points="352.33 7.43 353.67 26.75 347.87 26.75 346.53 7.43 352.33 7.43"/><polygon class="cls-5" points="346.53 7.43 347.87 26.75 347.28 27.36 345.94 8.04 346.53 7.43"/><polygon class="cls-5" points="345.94 8.04 347.28 27.36 347.12 27.53 345.78 8.21 345.94 8.04"/><polygon class="cls-6" points="358.12 7.43 359.45 26.75 354.82 26.75 353.48 7.43 358.12 7.43"/><polygon class="cls-6" points="351.57 8.21 352.91 27.53 347.12 27.53 345.78 8.21 351.57 8.21"/><polygon class="cls-5" points="351.74 8.04 353.08 27.36 352.91 27.53 351.57 8.21 351.74 8.04"/><polygon class="cls-3" points="351.57 8.21 352.91 27.53 347.12 27.53 345.78 8.21 351.57 8.21"/><polygon class="cls-4" points="348.31 11.59 352.33 7.43 353.48 7.43 349.47 11.59 348.31 11.59"/><polygon class="cls-4" points="345.78 8.21 345.94 8.04 351.74 8.04 351.57 8.21 345.78 8.21"/><polygon class="cls-3" points="342.51 11.59 343.85 30.91 342.69 30.91 341.36 11.59 342.51 11.59"/><polygon class="cls-4" points="341.36 11.59 345.37 7.43 346.53 7.43 345.94 8.04 345.78 8.21 342.51 11.59 341.36 11.59"/><polygon class="cls-5" points="345.78 8.21 347.12 27.53 343.85 30.91 342.51 11.59 345.78 8.21"/><polygon class="cls-3" points="349.47 11.59 350.81 30.91 349.65 30.91 348.31 11.59 349.47 11.59"/><polygon class="cls-5" points="353.48 7.43 354.82 26.75 350.81 30.91 349.47 11.59 353.48 7.43"/></g><polygon class="cls-6" points="372.02 7.43 373.37 26.75 360.61 26.75 359.27 7.43 372.02 7.43"/><g class="cls-2"><polygon class="cls-4" points="368.01 11.59 372.02 7.43 373.18 7.43 369.17 11.59 368.01 11.59"/><polygon class="cls-5" points="373.18 7.43 374.52 26.75 370.5 30.91 369.17 11.59 373.18 7.43"/><polygon class="cls-3" points="369.17 11.59 370.5 30.91 369.35 30.91 368.01 11.59 369.17 11.59"/></g><g class="cls-2"><polygon class="cls-4" points="354.1 11.59 358.12 7.43 359.27 7.43 355.26 11.59 354.1 11.59"/><polygon class="cls-5" points="359.27 7.43 360.61 26.75 356.6 30.91 355.26 11.59 359.27 7.43"/><polygon class="cls-3" points="355.26 11.59 356.6 30.91 355.44 30.91 354.1 11.59 355.26 11.59"/></g><g class="cls-2"><polygon class="cls-4" points="333.67 10.12 336.26 7.43 336.84 7.43 334.25 10.12 333.67 10.12"/><polygon class="cls-5" points="336.84 7.43 338.18 26.75 335.59 29.44 334.25 10.12 336.84 7.43"/><polygon class="cls-3" points="334.25 10.12 335.59 29.44 335.01 29.44 333.67 10.12 334.25 10.12"/><polygon class="cls-4" points="329.28 10.29 329.45 10.12 333.67 10.12 334.25 10.12 337.56 10.12 337.39 10.29 329.28 10.29"/><polygon class="cls-5" points="337.56 10.12 338.9 29.44 338.73 29.61 337.39 10.29 337.56 10.12"/><polygon class="cls-3" points="337.39 10.29 338.73 29.61 330.62 29.61 329.28 10.29 337.39 10.29"/></g><polygon class="cls-6" points="337.39 10.29 338.73 29.61 330.62 29.61 329.28 10.29 337.39 10.29"/><g class="cls-2"><polygon class="cls-3" points="367.67 11.94 369.01 31.26 336.56 31.26 335.22 11.94 367.67 11.94"/><polygon class="cls-3" points="368.83 11.94 370.17 31.26 369.01 31.26 367.67 11.94 368.83 11.94"/><polygon class="cls-4" points="335.22 11.94 335.56 11.59 368.01 11.59 369.17 11.59 377.28 11.59 376.94 11.94 368.83 11.94 367.67 11.94 335.22 11.94"/><polygon class="cls-5" points="377.28 11.59 378.62 30.91 378.28 31.26 376.94 11.94 377.28 11.59"/><polygon class="cls-3" points="376.94 11.94 378.28 31.26 370.17 31.26 368.83 11.94 376.94 11.94"/></g><g class="cls-2"><polygon class="cls-6" points="367.67 11.94 369.01 31.26 336.56 31.26 335.22 11.94 367.67 11.94"/><polygon class="cls-6" points="376.94 11.94 378.28 31.26 370.17 31.26 368.83 11.94 376.94 11.94"/><polygon class="cls-5" points="368.83 11.94 370.17 31.26 367.49 34.03 366.15 14.71 368.83 11.94"/><polygon class="cls-6" points="374.93 14.02 376.27 33.33 368.16 33.33 366.82 14.02 374.93 14.02"/><polygon class="cls-4" points="366.82 14.02 367.16 13.67 375.27 13.67 374.93 14.02 366.82 14.02"/><polygon class="cls-5" points="375.27 13.67 376.61 32.99 376.27 33.33 374.93 14.02 375.27 13.67"/><polygon class="cls-3" points="374.93 14.02 376.27 33.33 368.16 33.33 366.82 14.02 374.93 14.02"/><polygon class="cls-4" points="365 14.71 367.67 11.94 368.83 11.94 366.15 14.71 365 14.71"/><polygon class="cls-3" points="366.15 14.71 367.49 34.03 366.34 34.03 365 14.71 366.15 14.71"/><polygon class="cls-5" points="378.43 11.59 379.77 30.91 376.76 34.03 375.42 14.71 378.43 11.59"/><polygon class="cls-3" points="375.42 14.71 376.76 34.03 375.6 34.03 374.26 14.71 375.42 14.71"/><polygon class="cls-4" points="374.26 14.71 374.93 14.02 375.27 13.67 377.28 11.59 378.43 11.59 375.42 14.71 374.26 14.71"/><polygon class="cls-4" points="364.66 15.06 365 14.71 366.15 14.71 374.26 14.71 375.42 14.71 375.08 15.06 364.66 15.06"/><polygon class="cls-5" points="375.42 14.71 376.76 34.03 376.42 34.38 375.08 15.06 375.42 14.71"/><polygon class="cls-3" points="375.08 15.06 376.42 34.38 366 34.38 364.66 15.06 375.08 15.06"/><polygon class="cls-6" points="375.08 15.06 376.42 34.38 366 34.38 364.66 15.06 375.08 15.06"/></g><g class="cls-2"><polygon class="cls-4" points="321.66 11.59 325.67 7.43 326.83 7.43 322.81 11.59 321.66 11.59"/><polygon class="cls-5" points="326.83 7.43 328.17 26.75 324.15 30.91 322.81 11.59 326.83 7.43"/><polygon class="cls-3" points="322.81 11.59 324.15 30.91 323 30.91 321.66 11.59 322.81 11.59"/></g><g class="cls-2"><polygon class="cls-4" points="321.32 11.94 321.66 11.59 322.81 11.59 328.61 11.59 328.27 11.94 321.32 11.94"/><polygon class="cls-5" points="328.61 11.59 329.95 30.91 329.62 31.26 328.27 11.94 328.61 11.59"/><polygon class="cls-3" points="328.27 11.94 329.62 31.26 322.66 31.26 321.32 11.94 328.27 11.94"/></g><polygon class="cls-6" points="328.27 11.94 329.62 31.26 322.66 31.26 321.32 11.94 328.27 11.94"/><g class="cls-2"><polygon class="cls-4" points="314.7 11.59 318.72 7.43 319.87 7.43 315.86 11.59 314.7 11.59"/><polygon class="cls-5" points="319.87 7.43 321.21 26.75 317.2 30.91 315.86 11.59 319.87 7.43"/><polygon class="cls-3" points="315.86 11.59 317.2 30.91 316.04 30.91 314.7 11.59 315.86 11.59"/></g><g class="cls-2"><polygon class="cls-3" points="291.49 7.43 292.83 26.75 272.55 26.75 271.21 7.43 291.49 7.43"/><polygon class="cls-3" points="292.65 7.43 293.99 26.75 292.83 26.75 291.49 7.43 292.65 7.43"/><polygon class="cls-4" points="271.21 7.43 271.54 7.09 313.26 7.09 312.93 7.43 292.65 7.43 291.49 7.43 271.21 7.43"/><polygon class="cls-5" points="313.26 7.09 314.6 26.4 314.27 26.75 312.93 7.43 313.26 7.09"/><polygon class="cls-3" points="312.93 7.43 314.27 26.75 293.99 26.75 292.65 7.43 312.93 7.43"/></g><polygon class="cls-6" points="291.49 7.43 292.83 26.75 272.55 26.75 271.21 7.43 291.49 7.43"/><g class="cls-2"><polygon class="cls-6" points="312.93 7.43 314.27 26.75 293.99 26.75 292.65 7.43 312.93 7.43"/><polygon class="cls-3" points="268.64 10.72 269.98 30.04 269.4 30.04 268.06 10.72 268.64 10.72"/><polygon class="cls-6" points="278.49 10.72 279.83 30.04 269.98 30.04 268.64 10.72 278.49 10.72"/><polygon class="cls-3" points="278.49 10.72 279.83 30.04 269.98 30.04 268.64 10.72 278.49 10.72"/><polygon class="cls-3" points="279.07 10.72 280.41 30.04 279.83 30.04 278.49 10.72 279.07 10.72"/><polygon class="cls-6" points="310.26 8.99 311.6 28.31 297.7 28.31 296.36 8.99 310.26 8.99"/><polygon class="cls-4" points="296.36 8.99 296.52 8.82 310.42 8.82 310.26 8.99 296.36 8.99"/><polygon class="cls-5" points="310.42 8.82 311.76 28.14 311.6 28.31 310.26 8.99 310.42 8.82"/><polygon class="cls-3" points="310.26 8.99 311.6 28.31 297.7 28.31 296.36 8.99 310.26 8.99"/><polygon class="cls-3" points="289.63 10.55 290.97 29.87 289.82 29.87 288.48 10.55 289.63 10.55"/><polygon class="cls-4" points="288.48 10.55 291.49 7.43 292.65 7.43 289.63 10.55 288.48 10.55"/><polygon class="cls-5" points="292.65 7.43 293.99 26.75 290.97 29.87 289.63 10.55 292.65 7.43"/><polygon class="cls-3" points="288.31 10.72 289.65 30.04 280.41 30.04 279.07 10.72 288.31 10.72"/><polygon class="cls-6" points="288.31 10.72 289.65 30.04 280.41 30.04 279.07 10.72 288.31 10.72"/><polygon class="cls-3" points="289.47 10.72 290.81 30.04 289.65 30.04 288.31 10.72 289.47 10.72"/><polygon class="cls-4" points="277.65 11.59 278.49 10.72 279.07 10.72 278.23 11.59 277.65 11.59"/><polygon class="cls-5" points="279.07 10.72 280.41 30.04 279.57 30.91 278.23 11.59 279.07 10.72"/><polygon class="cls-3" points="278.23 11.59 279.57 30.91 278.99 30.91 277.65 11.59 278.23 11.59"/><polygon class="cls-3" points="299.03 10.72 300.37 30.04 290.81 30.04 289.47 10.72 299.03 10.72"/><polygon class="cls-3" points="299.6 10.72 300.94 30.04 300.37 30.04 299.03 10.72 299.6 10.72"/><polygon class="cls-3" points="309.17 10.72 310.51 30.04 300.94 30.04 299.6 10.72 309.17 10.72"/><polygon class="cls-5" points="309.92 10.55 311.25 29.87 311.09 30.04 309.75 10.72 309.92 10.55"/><polygon class="cls-3" points="309.75 10.72 311.09 30.04 310.51 30.04 309.17 10.72 309.75 10.72"/><polygon class="cls-4" points="268.06 10.72 268.2 10.55 288.48 10.55 289.63 10.55 309.92 10.55 309.75 10.72 309.17 10.72 299.6 10.72 299.03 10.72 289.47 10.72 288.31 10.72 279.07 10.72 278.49 10.72 268.64 10.72 268.06 10.72"/></g><polygon class="cls-6" points="309.17 10.72 310.51 30.04 300.94 30.04 299.6 10.72 309.17 10.72"/><polygon class="cls-6" points="299.03 10.72 300.37 30.04 290.81 30.04 289.47 10.72 299.03 10.72"/><g class="cls-2"><polygon class="cls-4" points="308.33 11.59 309.17 10.72 309.75 10.72 308.91 11.59 308.33 11.59"/><polygon class="cls-5" points="309.75 10.72 311.09 30.04 310.25 30.91 308.91 11.59 309.75 10.72"/><polygon class="cls-3" points="308.91 11.59 310.25 30.91 309.67 30.91 308.33 11.59 308.91 11.59"/></g><g class="cls-2"><polygon class="cls-4" points="298.19 11.59 299.03 10.72 299.6 10.72 298.77 11.59 298.19 11.59"/><polygon class="cls-5" points="299.6 10.72 300.94 30.04 300.11 30.91 298.77 11.59 299.6 10.72"/><polygon class="cls-3" points="298.77 11.59 300.11 30.91 299.53 30.91 298.19 11.59 298.77 11.59"/></g><g class="cls-2"><polygon class="cls-4" points="287.47 11.59 288.31 10.72 289.47 10.72 288.63 11.59 287.47 11.59"/><polygon class="cls-5" points="289.47 10.72 290.81 30.04 289.97 30.91 288.63 11.59 289.47 10.72"/><polygon class="cls-3" points="288.63 11.59 289.97 30.91 288.81 30.91 287.47 11.59 288.63 11.59"/></g><g class="cls-2"><polygon class="cls-3" points="210.96 7.43 212.29 26.75 211.14 26.75 209.8 7.43 210.96 7.43"/><polygon class="cls-3" points="237.61 7.43 238.95 26.75 212.29 26.75 210.96 7.43 237.61 7.43"/><polygon class="cls-6" points="237.61 7.43 238.95 26.75 212.29 26.75 210.96 7.43 237.61 7.43"/><polygon class="cls-3" points="238.76 7.43 240.1 26.75 238.95 26.75 237.61 7.43 238.76 7.43"/><polygon class="cls-5" points="210.96 7.43 212.29 26.75 209.28 29.87 207.94 10.55 210.96 7.43"/><polygon class="cls-5" points="231.64 8.82 232.98 28.14 232.81 28.31 231.47 8.99 231.64 8.82"/><polygon class="cls-6" points="231.47 8.99 232.81 28.31 218.9 28.31 217.56 8.99 231.47 8.99"/><polygon class="cls-3" points="231.47 8.99 232.81 28.31 218.9 28.31 217.56 8.99 231.47 8.99"/><polygon class="cls-4" points="217.56 8.99 217.73 8.82 231.64 8.82 231.47 8.99 217.56 8.99"/><polygon class="cls-5" points="207.94 10.55 209.28 29.87 209.12 30.04 207.78 10.72 207.94 10.55"/><polygon class="cls-3" points="264.26 7.43 265.6 26.75 240.1 26.75 238.76 7.43 264.26 7.43"/><polygon class="cls-6" points="264.26 7.43 265.6 26.75 240.1 26.75 238.76 7.43 264.26 7.43"/><polygon class="cls-4" points="209.8 7.43 210.13 7.09 265.75 7.09 265.42 7.43 264.26 7.43 238.76 7.43 237.61 7.43 210.96 7.43 209.8 7.43"/><polygon class="cls-5" points="265.75 7.09 267.09 26.4 266.76 26.75 265.42 7.43 265.75 7.09"/><polygon class="cls-3" points="265.42 7.43 266.76 26.75 265.6 26.75 264.26 7.43 265.42 7.43"/><polygon class="cls-3" points="228.67 10.72 230 30.04 209.12 30.04 207.78 10.72 228.67 10.72"/><polygon class="cls-6" points="228.67 10.72 230 30.04 209.12 30.04 207.78 10.72 228.67 10.72"/><polygon class="cls-3" points="229.24 10.72 230.58 30.04 230 30.04 228.67 10.72 229.24 10.72"/><polygon class="cls-3" points="234.43 10.72 235.77 30.04 230.58 30.04 229.24 10.72 234.43 10.72"/><polygon class="cls-5" points="234.6 10.55 235.94 29.87 235.77 30.04 234.43 10.72 234.6 10.55"/><polygon class="cls-6" points="234.43 10.72 235.77 30.04 230.58 30.04 229.24 10.72 234.43 10.72"/><polygon class="cls-4" points="207.78 10.72 207.94 10.55 234.6 10.55 234.43 10.72 229.24 10.72 228.67 10.72 207.78 10.72"/><polygon class="cls-5" points="229.24 10.72 230.58 30.04 229.74 30.91 228.4 11.59 229.24 10.72"/><polygon class="cls-4" points="227.83 11.59 228.67 10.72 229.24 10.72 228.4 11.59 227.83 11.59"/><polygon class="cls-3" points="228.4 11.59 229.74 30.91 229.17 30.91 227.83 11.59 228.4 11.59"/><polygon class="cls-5" points="238.76 7.43 240.1 26.75 236.09 30.91 234.75 11.59 238.76 7.43"/><polygon class="cls-4" points="233.59 11.59 237.61 7.43 238.76 7.43 234.75 11.59 233.59 11.59"/><polygon class="cls-3" points="234.75 11.59 236.09 30.91 234.93 30.91 233.59 11.59 234.75 11.59"/><polygon class="cls-5" points="245.18 11.59 246.52 30.91 246.19 31.26 244.84 11.94 245.18 11.59"/><polygon class="cls-4" points="227.46 11.94 227.79 11.59 228.4 11.59 233.59 11.59 234.75 11.59 245.18 11.59 244.84 11.94 227.46 11.94"/><polygon class="cls-3" points="244.84 11.94 246.19 31.26 228.8 31.26 227.46 11.94 244.84 11.94"/><polygon class="cls-6" points="244.84 11.94 246.19 31.26 228.8 31.26 227.46 11.94 244.84 11.94"/><polygon class="cls-3" points="261.4 11.59 262.74 30.91 261.59 30.91 260.25 11.59 261.4 11.59"/><polygon class="cls-5" points="265.42 7.43 266.76 26.75 262.74 30.91 261.4 11.59 265.42 7.43"/><polygon class="cls-4" points="260.25 11.59 264.26 7.43 265.42 7.43 261.4 11.59 260.25 11.59"/><polygon class="cls-5" points="207.78 10.72 209.12 30.04 203.26 36.11 201.92 16.79 207.78 10.72"/><polygon class="cls-3" points="201.92 16.79 203.26 36.11 202.1 36.11 200.76 16.79 201.92 16.79"/><polygon class="cls-4" points="200.76 16.79 209.8 7.43 210.96 7.43 207.94 10.55 207.78 10.72 201.92 16.79 200.76 16.79"/></g><g class="cls-2"><polygon class="cls-4" points="267.23 11.59 268.06 10.72 268.64 10.72 267.8 11.59 267.23 11.59"/><polygon class="cls-5" points="268.64 10.72 269.98 30.04 269.14 30.91 267.8 11.59 268.64 10.72"/><polygon class="cls-3" points="267.8 11.59 269.14 30.91 268.57 30.91 267.23 11.59 267.8 11.59"/></g><g class="cls-2"><polygon class="cls-4" points="249.48 11.94 249.81 11.59 260.25 11.59 261.4 11.59 267.23 11.59 267.8 11.59 277.65 11.59 278.23 11.59 287.47 11.59 288.63 11.59 298.19 11.59 298.77 11.59 308.33 11.59 308.91 11.59 314.7 11.59 315.86 11.59 318.18 11.59 317.84 11.94 249.48 11.94"/><polygon class="cls-5" points="318.18 11.59 319.52 30.91 319.18 31.26 317.84 11.94 318.18 11.59"/><polygon class="cls-3" points="317.84 11.94 319.18 31.26 250.82 31.26 249.48 11.94 317.84 11.94"/></g><polygon class="cls-6" points="317.84 11.94 319.18 31.26 250.82 31.26 249.48 11.94 317.84 11.94"/><g class="cls-2"><polygon class="cls-5" points="390.89 7.09 392.23 26.4 391.9 26.75 390.56 7.43 390.89 7.09"/><polygon class="cls-6" points="400.99 7.43 402.33 26.75 391.9 26.75 390.56 7.43 400.99 7.43"/><polygon class="cls-3" points="400.99 7.43 402.33 26.75 391.9 26.75 390.56 7.43 400.99 7.43"/><polygon class="cls-5" points="401.33 7.09 402.67 26.4 402.33 26.75 400.99 7.43 401.33 7.09"/><polygon class="cls-4" points="400.99 7.43 390.56 7.43 390.89 7.09 401.33 7.09 400.99 7.43"/><polygon class="cls-5" points="402.48 7.09 403.82 26.4 403.49 26.75 402.15 7.43 402.48 7.09"/><polygon class="cls-5" points="390.56 7.43 391.9 26.75 384.87 34.03 383.53 14.71 390.56 7.43"/><polygon class="cls-3" points="383.53 14.71 384.87 34.03 383.71 34.03 382.37 14.71 383.53 14.71"/><polygon class="cls-4" points="382.37 14.71 389.74 7.09 390.89 7.09 390.56 7.43 383.53 14.71 382.37 14.71"/><polygon class="cls-4" points="380.88 15.06 381.22 14.71 382.37 14.71 383.53 14.71 393.96 14.71 393.63 15.06 380.88 15.06"/><polygon class="cls-6" points="393.63 15.06 394.97 34.38 382.22 34.38 380.88 15.06 393.63 15.06"/><polygon class="cls-3" points="393.63 15.06 394.97 34.38 382.22 34.38 380.88 15.06 393.63 15.06"/><polygon class="cls-5" points="393.96 14.71 395.3 34.03 394.97 34.38 393.63 15.06 393.96 14.71"/><polygon class="cls-6" points="379.57 29.61 380.91 48.93 291.68 48.93 290.34 29.61 379.57 29.61"/><polygon class="cls-4" points="290.34 29.61 290.68 29.26 379.9 29.26 379.57 29.61 290.34 29.61"/><polygon class="cls-5" points="379.9 29.26 381.24 48.58 380.91 48.93 379.57 29.61 379.9 29.26"/><polygon class="cls-3" points="379.57 29.61 380.91 48.93 291.68 48.93 290.34 29.61 379.57 29.61"/><polygon class="cls-3" points="380.73 29.61 382.06 48.93 380.91 48.93 379.57 29.61 380.73 29.61"/><polygon class="cls-5" points="402.15 7.43 403.49 26.75 382.06 48.93 380.73 29.61 402.15 7.43"/><polygon class="cls-4" points="379.57 29.61 393.63 15.06 393.96 14.71 400.99 7.43 401.33 7.09 402.48 7.09 402.15 7.43 380.73 29.61 379.57 29.61"/></g><g class="cls-2"><polygon class="cls-5" points="198.91 19.91 200.25 39.23 198.24 41.3 196.9 21.99 198.91 19.91"/><polygon class="cls-5" points="196.9 21.99 198.24 41.3 197.9 41.65 196.56 22.33 196.9 21.99"/><polygon class="cls-4" points="194.07 23.72 197.75 19.91 198.91 19.91 196.9 21.99 196.56 22.33 195.22 23.72 194.07 23.72"/><polygon class="cls-5" points="196.56 22.33 197.9 41.65 196.56 43.04 195.22 23.72 196.56 22.33"/><polygon class="cls-3" points="195.22 23.72 196.56 43.04 195.41 43.04 194.07 23.72 195.22 23.72"/></g><g class="cls-2"><polygon class="cls-7" points="163.56 0.31 163.86 0 165.41 0 165.11 0.31 163.56 0.31"/><polygon class="cls-8" points="165.41 0 166.75 19.32 166.45 19.63 165.11 0.31 165.41 0"/><polygon class="cls-9" points="165.11 0.31 166.45 19.63 164.91 19.63 163.56 0.31 165.11 0.31"/></g><g class="cls-2"><polygon class="cls-7" points="161.99 2.47 164.08 0.31 165.11 0.31 163.03 2.47 161.99 2.47"/><polygon class="cls-8" points="165.11 0.31 166.45 19.63 164.37 21.79 163.03 2.47 165.11 0.31"/><polygon class="cls-9" points="163.03 2.47 164.37 21.79 163.33 21.79 161.99 2.47 163.03 2.47"/></g><g class="cls-2"><polygon class="cls-9" points="190.9 0.31 192.24 19.63 172.13 19.63 170.79 0.31 190.9 0.31"/><polygon class="cls-8" points="171.3 0.31 172.64 19.63 172.05 20.24 170.71 0.93 171.3 0.31"/><polygon class="cls-9" points="170.71 0.93 172.05 20.24 171.53 20.24 170.19 0.93 170.71 0.93"/><polygon class="cls-7" points="170.19 0.93 170.79 0.31 171.3 0.31 170.71 0.93 170.19 0.93"/><polygon class="cls-8" points="191.19 0 192.53 19.32 192.24 19.63 190.9 0.31 191.19 0"/><polygon class="cls-7" points="170.79 0.31 171.09 0 191.19 0 190.9 0.31 170.79 0.31"/><polygon class="cls-7" points="166.62 4.63 169 2.16 169.51 2.16 167.13 4.63 166.62 4.63"/><polygon class="cls-9" points="167.13 4.63 168.47 23.95 167.96 23.95 166.62 4.63 167.13 4.63"/><polygon class="cls-8" points="169.51 2.16 170.85 21.48 168.47 23.95 167.13 4.63 169.51 2.16"/><polygon class="cls-8" points="186.72 4.63 188.06 23.95 187.77 24.25 186.43 4.94 186.72 4.63"/><polygon class="cls-7" points="166.32 4.94 166.62 4.63 167.13 4.63 186.72 4.63 186.43 4.94 166.32 4.94"/><polygon class="cls-9" points="186.43 4.94 187.77 24.25 167.66 24.25 166.32 4.94 186.43 4.94"/><polygon class="cls-7" points="175.11 16.66 191.19 0 192.23 0 176.14 16.66 175.11 16.66"/><polygon class="cls-9" points="176.14 16.66 177.48 35.97 176.45 35.97 175.11 16.66 176.14 16.66"/><polygon class="cls-8" points="192.23 0 193.57 19.32 177.48 35.97 176.14 16.66 192.23 0"/></g><g class="cls-2"><polygon class="cls-5" points="193.22 25.8 194.56 45.12 193.55 46.16 192.21 26.84 193.22 25.8"/><polygon class="cls-5" points="192.21 26.84 193.55 46.16 193.22 46.5 191.88 27.18 192.21 26.84"/><polygon class="cls-5" points="191.88 27.18 193.22 46.5 191.21 48.58 189.87 29.26 191.88 27.18"/><polygon class="cls-4" points="188.38 29.61 192.06 25.8 193.22 25.8 192.21 26.84 191.88 27.18 189.87 29.26 189.53 29.61 188.38 29.61"/><polygon class="cls-5" points="189.87 29.26 191.21 48.58 190.87 48.93 189.53 29.61 189.87 29.26"/><polygon class="cls-3" points="189.53 29.61 190.87 48.93 189.72 48.93 188.38 29.61 189.53 29.61"/></g><g class="cls-2"><polygon class="cls-4" points="196.56 22.33 196.9 21.99 223.55 21.99 223.22 22.33 196.56 22.33"/><polygon class="cls-5" points="223.55 21.99 224.89 41.3 224.56 41.65 223.22 22.33 223.55 21.99"/><polygon class="cls-3" points="223.22 22.33 224.56 41.65 197.9 41.65 196.56 22.33 223.22 22.33"/></g><polygon class="cls-6" points="223.22 22.33 224.56 41.65 197.9 41.65 196.56 22.33 223.22 22.33"/><g class="cls-2"><polygon class="cls-4" points="216.52 29.26 223.55 21.99 224.71 21.99 217.68 29.26 216.52 29.26"/><polygon class="cls-5" points="224.71 21.99 226.05 41.3 219.02 48.58 217.68 29.26 224.71 21.99"/><polygon class="cls-3" points="217.68 29.26 219.02 48.58 217.86 48.58 216.52 29.26 217.68 29.26"/></g><g class="cls-2"><polygon class="cls-6" points="198.83 27.18 200.17 46.5 193.22 46.5 191.88 27.18 198.83 27.18"/><polygon class="cls-3" points="198.83 27.18 200.17 46.5 193.22 46.5 191.88 27.18 198.83 27.18"/><polygon class="cls-3" points="199.99 27.18 201.33 46.5 200.17 46.5 198.83 27.18 199.99 27.18"/><polygon class="cls-3" points="208.1 27.18 209.44 46.5 201.33 46.5 199.99 27.18 208.1 27.18"/><polygon class="cls-4" points="191.88 27.18 192.21 26.84 208.43 26.84 208.1 27.18 199.99 27.18 198.83 27.18 191.88 27.18"/><polygon class="cls-5" points="208.43 26.84 209.77 46.16 209.44 46.5 208.1 27.18 208.43 26.84"/><polygon class="cls-6" points="208.1 27.18 209.44 46.5 201.33 46.5 199.99 27.18 208.1 27.18"/><polygon class="cls-3" points="207.25 29.26 208.59 48.58 207.43 48.58 206.09 29.26 207.25 29.26"/><polygon class="cls-5" points="212.61 23.72 213.95 43.04 208.59 48.58 207.25 29.26 212.61 23.72"/><polygon class="cls-4" points="206.09 29.26 211.44 23.72 212.61 23.72 207.25 29.26 206.09 29.26"/></g><g class="cls-2"><polygon class="cls-4" points="196.82 29.26 198.83 27.18 199.99 27.18 197.98 29.26 196.82 29.26"/><polygon class="cls-5" points="199.99 27.18 201.33 46.5 199.32 48.58 197.98 29.26 199.99 27.18"/><polygon class="cls-3" points="197.98 29.26 199.32 48.58 198.16 48.58 196.82 29.26 197.98 29.26"/><polygon class="cls-4" points="189.53 29.61 189.87 29.26 224.63 29.26 224.3 29.61 189.53 29.61"/><polygon class="cls-5" points="224.63 29.26 225.97 48.58 225.64 48.93 224.3 29.61 224.63 29.26"/><polygon class="cls-3" points="224.3 29.61 225.64 48.93 190.87 48.93 189.53 29.61 224.3 29.61"/></g><polygon class="cls-6" points="224.3 29.61 225.64 48.93 190.87 48.93 189.53 29.61 224.3 29.61"/><g class="cls-2"><polygon class="cls-4" points="235.89 29.61 236.22 29.26 279.1 29.26 278.76 29.61 235.89 29.61"/><polygon class="cls-5" points="279.1 29.26 280.44 48.58 280.1 48.93 278.76 29.61 279.1 29.26"/><polygon class="cls-3" points="278.76 29.61 280.1 48.93 237.22 48.93 235.89 29.61 278.76 29.61"/></g><polygon class="cls-6" points="278.76 29.61 280.1 48.93 237.22 48.93 235.89 29.61 278.76 29.61"/><g class="cls-2"><polygon class="cls-7" points="28.45 0.31 28.75 0 50.93 0 50.63 0.31 28.45 0.31"/><polygon class="cls-8" points="50.93 0 52.27 19.32 51.97 19.63 50.63 0.31 50.93 0"/><polygon class="cls-9" points="50.63 0.31 51.97 19.63 29.79 19.63 28.45 0.31 50.63 0.31"/></g><g class="cls-2"><polygon class="cls-8" points="29.49 0.31 30.83 19.63 29.78 20.71 28.44 1.39 29.49 0.31"/><polygon class="cls-8" points="28.44 1.39 29.78 20.71 29.49 21.01 28.15 1.7 28.44 1.39"/><polygon class="cls-7" points="28.15 1.7 28.44 1.39 45.98 1.39 45.68 1.7 28.15 1.7"/><polygon class="cls-9" points="45.68 1.7 47.02 21.01 29.49 21.01 28.15 1.7 45.68 1.7"/><polygon class="cls-8" points="45.98 1.39 47.32 20.71 47.02 21.01 45.68 1.7 45.98 1.39"/><polygon class="cls-7" points="45.02 1.85 45.17 1.7 45.68 1.7 45.53 1.85 45.02 1.85"/><polygon class="cls-9" points="45.53 1.85 46.87 21.17 46.36 21.17 45.02 1.85 45.53 1.85"/><polygon class="cls-8" points="45.68 1.7 47.02 21.01 46.87 21.17 45.53 1.85 45.68 1.7"/><polygon class="cls-7" points="55.27 0.31 55.57 0 78.26 0 77.96 0.31 55.27 0.31"/><polygon class="cls-8" points="78.26 0 79.6 19.32 79.3 19.63 77.96 0.31 78.26 0"/><polygon class="cls-9" points="77.96 0.31 79.3 19.63 56.61 19.63 55.27 0.31 77.96 0.31"/><polygon class="cls-7" points="43.83 3.08 43.98 2.93 44.49 2.93 44.34 3.08 43.83 3.08"/><polygon class="cls-9" points="44.34 3.08 45.68 22.4 45.17 22.4 43.83 3.08 44.34 3.08"/><polygon class="cls-8" points="44.49 2.93 45.83 22.25 45.68 22.4 44.34 3.08 44.49 2.93"/><polygon class="cls-9" points="46.77 3.24 48.1 22.56 34.19 22.56 32.85 3.24 46.77 3.24"/><polygon class="cls-8" points="46.91 3.08 48.25 22.4 48.1 22.56 46.77 3.24 46.91 3.08"/><polygon class="cls-7" points="32.85 3.24 33 3.08 43.83 3.08 44.34 3.08 46.91 3.08 46.77 3.24 32.85 3.24"/><polygon class="cls-8" points="56.82 0.31 58.16 19.63 53.99 23.95 52.65 4.63 56.82 0.31"/><polygon class="cls-9" points="61.59 2.31 62.92 21.63 56.22 21.63 54.88 2.31 61.59 2.31"/><polygon class="cls-7" points="54.88 2.31 55.18 2.01 61.88 2.01 61.59 2.31 54.88 2.31"/><polygon class="cls-8" points="61.88 2.01 63.22 21.32 62.92 21.63 61.59 2.31 61.88 2.01"/><polygon class="cls-9" points="61.73 3.24 63.07 22.56 62.03 22.56 60.69 3.24 61.73 3.24"/><polygon class="cls-8" points="62.92 2.01 64.26 21.32 63.07 22.56 61.73 3.24 62.92 2.01"/><polygon class="cls-7" points="60.69 3.24 61.59 2.31 61.88 2.01 62.92 2.01 61.73 3.24 60.69 3.24"/><polygon class="cls-9" points="52.65 4.63 53.99 23.95 52.95 23.95 51.61 4.63 52.65 4.63"/><polygon class="cls-7" points="51.61 4.63 55.78 0.31 56.82 0.31 52.65 4.63 51.61 4.63"/><polygon class="cls-9" points="60.38 4.63 61.73 23.95 60.69 23.95 59.35 4.63 60.38 4.63"/><polygon class="cls-7" points="59.35 4.63 59.8 4.17 60.83 4.17 60.38 4.63 59.35 4.63"/><polygon class="cls-8" points="60.83 4.17 62.17 23.48 61.73 23.95 60.38 4.63 60.83 4.17"/><polygon class="cls-8" points="28.15 1.7 29.49 21.01 24.12 26.57 22.78 7.25 28.15 1.7"/><polygon class="cls-7" points="21.45 7.56 28.45 0.31 29.49 0.31 28.44 1.39 28.15 1.7 22.78 7.25 22.49 7.56 21.45 7.56"/><polygon class="cls-8" points="22.78 7.25 24.12 26.57 23.83 26.88 22.49 7.56 22.78 7.25"/><polygon class="cls-9" points="22.49 7.56 23.83 26.88 22.79 26.88 21.45 7.56 22.49 7.56"/><polygon class="cls-9" points="71.43 4.94 72.77 24.25 26.36 24.25 25.02 4.94 71.43 4.94"/><polygon class="cls-8" points="28.97 7.25 30.31 26.57 30.02 26.88 28.68 7.56 28.97 7.25"/><polygon class="cls-9" points="28.68 7.56 30.02 26.88 23.83 26.88 22.49 7.56 28.68 7.56"/><polygon class="cls-7" points="22.49 7.56 22.78 7.25 28.97 7.25 28.68 7.56 22.49 7.56"/><polygon class="cls-8" points="71.73 4.63 73.07 23.95 72.77 24.25 71.43 4.94 71.73 4.63"/><polygon class="cls-7" points="25.02 4.94 25.32 4.63 51.61 4.63 52.65 4.63 59.35 4.63 60.38 4.63 71.73 4.63 71.43 4.94 25.02 4.94"/><polygon class="cls-7" points="27.04 9.25 28.68 7.56 28.97 7.25 31.21 4.94 31.72 4.94 27.55 9.25 27.04 9.25"/><polygon class="cls-8" points="31.72 4.94 33.06 24.25 28.89 28.57 27.55 9.25 31.72 4.94"/><polygon class="cls-9" points="27.55 9.25 28.89 28.57 28.38 28.57 27.04 9.25 27.55 9.25"/></g><g class="cls-2"><polygon class="cls-7" points="79.26 3.24 79.56 2.93 80.58 2.93 80.29 3.24 79.26 3.24"/><polygon class="cls-8" points="80.58 2.93 81.92 22.25 81.63 22.56 80.29 3.24 80.58 2.93"/><polygon class="cls-9" points="80.29 3.24 81.63 22.56 80.6 22.56 79.26 3.24 80.29 3.24"/></g><g class="cls-2"><polygon class="cls-9" points="109.94 0.31 111.28 19.63 83.94 19.63 82.6 0.31 109.94 0.31"/><polygon class="cls-9" points="110.96 0.31 112.3 19.63 111.28 19.63 109.94 0.31 110.96 0.31"/><polygon class="cls-7" points="82.6 0.31 82.9 0 111.78 0 111.48 0.31 110.96 0.31 109.94 0.31 82.6 0.31"/><polygon class="cls-9" points="111.48 0.31 112.82 19.63 112.3 19.63 110.96 0.31 111.48 0.31"/><polygon class="cls-8" points="111.78 0 113.12 19.32 112.82 19.63 111.48 0.31 111.78 0"/><polygon class="cls-7" points="79.99 3.55 83.12 0.31 84.15 0.31 81.02 3.55 79.99 3.55"/><polygon class="cls-9" points="81.02 3.55 82.36 22.87 81.33 22.87 79.99 3.55 81.02 3.55"/><polygon class="cls-8" points="84.15 0.31 85.49 19.63 82.36 22.87 81.02 3.55 84.15 0.31"/><polygon class="cls-7" points="93.95 3.24 96.78 0.31 97.3 0.31 94.47 3.24 93.95 3.24"/><polygon class="cls-8" points="97.3 0.31 98.64 19.63 95.81 22.56 94.47 3.24 97.3 0.31"/><polygon class="cls-9" points="94.47 3.24 95.81 22.56 95.29 22.56 93.95 3.24 94.47 3.24"/><polygon class="cls-9" points="106.95 3.39 108.3 22.71 99.01 22.71 97.67 3.39 106.95 3.39"/><polygon class="cls-8" points="107.11 3.24 108.44 22.56 108.3 22.71 106.95 3.39 107.11 3.24"/><polygon class="cls-7" points="97.67 3.39 97.82 3.24 107.11 3.24 106.95 3.39 97.67 3.39"/><polygon class="cls-7" points="116.13 0.31 116.42 0 159.22 0 158.92 0.31 116.13 0.31"/><polygon class="cls-8" points="159.22 0 160.56 19.32 160.26 19.63 158.92 0.31 159.22 0"/><polygon class="cls-9" points="158.92 0.31 160.26 19.63 117.47 19.63 116.13 0.31 158.92 0.31"/><polygon class="cls-8" points="110.96 0.31 112.3 19.63 108.13 23.95 106.79 4.63 110.96 0.31"/><polygon class="cls-9" points="106.79 4.63 108.13 23.95 107.1 23.95 105.77 4.63 106.79 4.63"/><polygon class="cls-7" points="105.77 4.63 106.95 3.39 107.11 3.24 109.94 0.31 110.96 0.31 106.79 4.63 105.77 4.63"/><polygon class="cls-8" points="137.78 0.31 139.12 19.63 134.95 23.95 133.61 4.63 137.78 0.31"/><polygon class="cls-7" points="136.44 1.7 136.74 1.39 153.76 1.39 153.46 1.7 136.44 1.7"/><polygon class="cls-9" points="153.46 1.7 154.8 21.01 137.78 21.01 136.44 1.7 153.46 1.7"/><polygon class="cls-8" points="153.76 1.39 155.1 20.71 154.8 21.01 153.46 1.7 153.76 1.39"/><polygon class="cls-7" points="132.57 4.63 136.75 0.31 137.78 0.31 133.61 4.63 132.57 4.63"/><polygon class="cls-9" points="133.61 4.63 134.95 23.95 133.91 23.95 132.57 4.63 133.61 4.63"/><polygon class="cls-8" points="154.18 3.08 155.52 22.4 155.37 22.56 154.03 3.24 154.18 3.08"/><polygon class="cls-7" points="140.1 3.24 140.25 3.08 154.18 3.08 154.03 3.24 140.1 3.24"/><polygon class="cls-9" points="154.03 3.24 155.37 22.56 141.44 22.56 140.1 3.24 154.03 3.24"/><polygon class="cls-9" points="160.94 4.63 162.28 23.95 161.25 23.95 159.91 4.63 160.94 4.63"/><polygon class="cls-7" points="159.91 4.63 160.65 3.85 161.69 3.85 160.94 4.63 159.91 4.63"/><polygon class="cls-8" points="161.69 3.85 163.03 23.17 162.28 23.95 160.94 4.63 161.69 3.85"/><polygon class="cls-7" points="104.95 4.94 105.25 4.63 105.77 4.63 106.79 4.63 132.57 4.63 133.61 4.63 159.91 4.63 160.94 4.63 160.64 4.94 104.95 4.94"/><polygon class="cls-9" points="160.64 4.94 161.98 24.25 106.29 24.25 104.95 4.94 160.64 4.94"/><polygon class="cls-8" points="160.94 4.63 162.28 23.95 161.98 24.25 160.64 4.94 160.94 4.63"/></g><g class="cls-2"><polygon class="cls-7" points="162.74 29.46 171.68 20.2 172.71 20.2 163.78 29.46 162.74 29.46"/><polygon class="cls-8" points="172.71 20.2 174.05 39.52 165.12 48.78 163.78 29.46 172.71 20.2"/><polygon class="cls-9" points="163.78 29.46 165.12 48.78 164.08 48.78 162.74 29.46 163.78 29.46"/><polygon class="cls-7" points="155.23 29.77 155.53 29.46 163.78 29.46 163.48 29.77 155.23 29.77"/><polygon class="cls-8" points="163.78 29.46 165.12 48.78 164.82 49.08 163.48 29.77 163.78 29.46"/><polygon class="cls-9" points="163.48 29.77 164.82 49.08 156.57 49.08 155.23 29.77 163.48 29.77"/></g><g class="cls-2"><polygon class="cls-7" points="93.29 3.39 93.44 3.24 93.95 3.24 94.47 3.24 94.99 3.24 94.84 3.39 93.29 3.39"/><polygon class="cls-8" points="94.99 3.24 96.33 22.56 96.18 22.71 94.84 3.39 94.99 3.24"/><polygon class="cls-9" points="94.84 3.39 96.18 22.71 94.63 22.71 93.29 3.39 94.84 3.39"/></g><g class="cls-2"><polygon class="cls-7" points="81.17 3.39 81.32 3.24 90.61 3.24 90.45 3.39 81.17 3.39"/><polygon class="cls-8" points="90.61 3.24 91.94 22.56 91.8 22.71 90.45 3.39 90.61 3.24"/><polygon class="cls-9" points="90.45 3.39 91.8 22.71 82.51 22.71 81.17 3.39 90.45 3.39"/></g><g class="cls-2"><polygon class="cls-9" points="74.1 3.24 75.44 22.56 74.41 22.56 73.07 3.24 74.1 3.24"/><polygon class="cls-7" points="73.07 3.24 73.37 2.93 75.94 2.93 75.64 3.24 74.1 3.24 73.07 3.24"/><polygon class="cls-8" points="75.94 2.93 77.28 22.25 76.98 22.56 75.64 3.24 75.94 2.93"/><polygon class="cls-9" points="75.64 3.24 76.98 22.56 75.44 22.56 74.1 3.24 75.64 3.24"/><polygon class="cls-7" points="71.43 4.94 73.07 3.24 74.1 3.24 72.46 4.94 71.43 4.94"/><polygon class="cls-8" points="74.1 3.24 75.44 22.56 73.8 24.25 72.46 4.94 74.1 3.24"/><polygon class="cls-9" points="72.46 4.94 73.8 24.25 72.77 24.25 71.43 4.94 72.46 4.94"/></g><g class="cls-2"><polygon class="cls-8" points="79.98 4.63 81.32 23.95 78.79 26.57 77.45 7.25 79.98 4.63"/><polygon class="cls-7" points="79.68 4.94 79.83 4.78 101.48 4.78 101.34 4.94 79.68 4.94"/><polygon class="cls-8" points="101.48 4.78 102.82 24.1 102.68 24.25 101.34 4.94 101.48 4.78"/><polygon class="cls-9" points="101.34 4.94 102.68 24.25 81.02 24.25 79.68 4.94 101.34 4.94"/><polygon class="cls-8" points="77.45 7.25 78.79 26.57 78.49 26.88 77.15 7.56 77.45 7.25"/><polygon class="cls-9" points="78.7 7.56 80.04 26.88 78.49 26.88 77.15 7.56 78.7 7.56"/><polygon class="cls-8" points="78.99 7.25 80.33 26.57 80.04 26.88 78.7 7.56 78.99 7.25"/><polygon class="cls-7" points="77.15 7.56 77.45 7.25 78.99 7.25 78.7 7.56 77.15 7.56"/><polygon class="cls-7" points="82.6 7.25 84.84 4.94 85.87 4.94 83.64 7.25 82.6 7.25"/><polygon class="cls-8" points="85.87 4.94 87.21 24.25 84.98 26.57 83.64 7.25 85.87 4.94"/><polygon class="cls-9" points="83.64 7.25 84.98 26.57 83.94 26.57 82.6 7.25 83.64 7.25"/><polygon class="cls-7" points="81.79 7.56 82.09 7.25 85.18 7.25 84.89 7.56 81.79 7.56"/><polygon class="cls-8" points="85.18 7.25 86.52 26.57 86.23 26.88 84.89 7.56 85.18 7.25"/><polygon class="cls-9" points="84.89 7.56 86.23 26.88 83.13 26.88 81.79 7.56 84.89 7.56"/><polygon class="cls-7" points="89.3 7.25 91.54 4.94 92.57 4.94 90.34 7.25 89.3 7.25"/><polygon class="cls-8" points="92.57 4.94 93.91 24.25 91.68 26.57 90.34 7.25 92.57 4.94"/><polygon class="cls-9" points="90.34 7.25 91.68 26.57 90.64 26.57 89.3 7.25 90.34 7.25"/><polygon class="cls-7" points="87.97 7.56 88.27 7.25 90.34 7.25 90.04 7.56 87.97 7.56"/><polygon class="cls-8" points="90.34 7.25 91.68 26.57 91.38 26.88 90.04 7.56 90.34 7.25"/><polygon class="cls-9" points="90.04 7.56 91.38 26.88 89.31 26.88 87.97 7.56 90.04 7.56"/><polygon class="cls-9" points="67.02 18.04 68.36 37.36 67.33 37.36 65.98 18.04 67.02 18.04"/><polygon class="cls-8" points="77.15 7.56 78.49 26.88 68.36 37.36 67.02 18.04 77.15 7.56"/><polygon class="cls-7" points="65.98 18.04 78.94 4.63 79.98 4.63 77.45 7.25 77.15 7.56 67.02 18.04 65.98 18.04"/></g><g class="cls-2"><polygon class="cls-7" points="65.69 18.35 65.98 18.04 67.02 18.04 119.61 18.04 119.31 18.35 65.69 18.35"/><polygon class="cls-8" points="119.61 18.04 120.95 37.36 120.66 37.67 119.31 18.35 119.61 18.04"/><polygon class="cls-9" points="119.31 18.35 120.66 37.67 67.03 37.67 65.69 18.35 119.31 18.35"/></g><g class="cls-2"><polygon class="cls-9" points="98.44 21.28 99.78 40.6 98.23 40.6 96.89 21.28 98.44 21.28"/><polygon class="cls-9" points="99.47 21.28 100.81 40.6 99.78 40.6 98.44 21.28 99.47 21.28"/><polygon class="cls-7" points="96.89 21.28 97.19 20.97 101.32 20.97 101.02 21.28 99.47 21.28 98.44 21.28 96.89 21.28"/><polygon class="cls-8" points="101.32 20.97 102.66 40.29 102.36 40.6 101.02 21.28 101.32 20.97"/><polygon class="cls-9" points="101.02 21.28 102.36 40.6 100.81 40.6 99.47 21.28 101.02 21.28"/></g><g class="cls-2"><polygon class="cls-9" points="50.73 18.35 52.07 37.67 51.56 37.67 50.22 18.35 50.73 18.35"/><polygon class="cls-9" points="55.89 18.35 57.23 37.67 52.07 37.67 50.73 18.35 55.89 18.35"/><polygon class="cls-7" points="50.22 18.35 50.37 18.2 56.55 18.2 56.4 18.35 55.89 18.35 50.73 18.35 50.22 18.35"/><polygon class="cls-8" points="56.55 18.2 57.89 37.52 57.74 37.67 56.4 18.35 56.55 18.2"/><polygon class="cls-9" points="56.4 18.35 57.74 37.67 57.23 37.67 55.89 18.35 56.4 18.35"/></g><g class="cls-2"><polygon class="cls-7" points="49.18 19.43 50.22 18.35 50.73 18.35 49.69 19.43 49.18 19.43"/><polygon class="cls-8" points="50.73 18.35 52.07 37.67 51.03 38.75 49.69 19.43 50.73 18.35"/><polygon class="cls-9" points="49.69 19.43 51.03 38.75 50.52 38.75 49.18 19.43 49.69 19.43"/><polygon class="cls-7" points="54.85 19.43 55.89 18.35 56.4 18.35 55.36 19.43 54.85 19.43"/><polygon class="cls-8" points="56.4 18.35 57.74 37.67 56.7 38.75 55.36 19.43 56.4 18.35"/><polygon class="cls-9" points="55.36 19.43 56.7 38.75 56.19 38.75 54.85 19.43 55.36 19.43"/><polygon class="cls-7" points="49.03 19.59 49.18 19.43 55.36 19.43 55.21 19.59 49.03 19.59"/><polygon class="cls-8" points="55.36 19.43 56.7 38.75 56.55 38.9 55.21 19.59 55.36 19.43"/><polygon class="cls-9" points="55.21 19.59 56.55 38.9 50.37 38.9 49.03 19.59 55.21 19.59"/></g><g class="cls-2"><polygon class="cls-8" points="15.78 14.5 17.12 33.82 2.67 48.78 1.33 29.46 15.78 14.5"/><polygon class="cls-9" points="21.67 14.8 23.01 34.12 16.82 34.12 15.48 14.8 21.67 14.8"/><polygon class="cls-7" points="15.48 14.8 15.78 14.5 21.97 14.5 21.67 14.8 15.48 14.8"/><polygon class="cls-8" points="21.97 14.5 23.31 33.82 23.01 34.12 21.67 14.8 21.97 14.5"/><polygon class="cls-9" points="22.19 14.8 23.53 34.12 23.01 34.12 21.67 14.8 22.19 14.8"/><polygon class="cls-7" points="21.67 14.8 23.61 12.8 24.12 12.8 22.19 14.8 21.67 14.8"/><polygon class="cls-8" points="24.12 12.8 25.46 32.12 23.53 34.12 22.19 14.8 24.12 12.8"/><polygon class="cls-9" points="77.3 21.28 78.64 40.6 64.19 40.6 62.86 21.28 77.3 21.28"/><polygon class="cls-9" points="63.3 21.9 64.64 41.22 63.6 41.22 62.26 21.9 63.3 21.9"/><polygon class="cls-7" points="62.26 21.9 62.86 21.28 63.89 21.28 63.3 21.9 62.26 21.9"/><polygon class="cls-8" points="63.89 21.28 65.23 40.6 64.64 41.22 63.3 21.9 63.89 21.28"/><polygon class="cls-8" points="77.59 20.97 78.94 40.29 78.64 40.6 77.3 21.28 77.59 20.97"/><polygon class="cls-7" points="62.86 21.28 63.16 20.97 77.59 20.97 77.3 21.28 62.86 21.28"/><polygon class="cls-8" points="78.63 20.97 79.97 40.29 79.67 40.6 78.33 21.28 78.63 20.97"/><polygon class="cls-8" points="80.69 20.97 82.03 40.29 81.73 40.6 80.39 21.28 80.69 20.97"/><polygon class="cls-7" points="78.33 21.28 78.63 20.97 80.69 20.97 80.39 21.28 78.33 21.28"/><polygon class="cls-9" points="80.39 21.28 81.73 40.6 79.67 40.6 78.33 21.28 80.39 21.28"/><polygon class="cls-9" points="86.07 21.28 87.41 40.6 84.83 40.6 83.48 21.28 86.07 21.28"/><polygon class="cls-9" points="87.09 21.28 88.43 40.6 87.41 40.6 86.07 21.28 87.09 21.28"/><polygon class="cls-8" points="91.52 20.97 92.86 40.29 92.56 40.6 91.22 21.28 91.52 20.97"/><polygon class="cls-7" points="83.48 21.28 83.78 20.97 91.52 20.97 91.22 21.28 87.09 21.28 86.07 21.28 83.48 21.28"/><polygon class="cls-9" points="91.22 21.28 92.56 40.6 88.43 40.6 87.09 21.28 91.22 21.28"/><polygon class="cls-8" points="78.33 21.28 79.67 40.6 78.33 41.99 76.99 22.67 78.33 21.28"/><polygon class="cls-8" points="76.99 22.67 78.33 41.99 78.03 42.3 76.69 22.98 76.99 22.67"/><polygon class="cls-8" points="84.73 22.67 86.07 41.99 85.77 42.3 84.43 22.98 84.73 22.67"/><polygon class="cls-9" points="84.43 22.98 85.77 42.3 78.03 42.3 76.69 22.98 84.43 22.98"/><polygon class="cls-7" points="83.98 23.44 86.07 21.28 87.09 21.28 85.01 23.44 83.98 23.44"/><polygon class="cls-7" points="76.69 22.98 76.99 22.67 84.73 22.67 84.43 22.98 76.69 22.98"/><polygon class="cls-8" points="87.09 21.28 88.43 40.6 86.35 42.76 85.01 23.44 87.09 21.28"/><polygon class="cls-9" points="85.01 23.44 86.35 42.76 85.32 42.76 83.98 23.44 85.01 23.44"/><polygon class="cls-7" points="0 29.77 14.75 14.5 15.78 14.5 1.33 29.46 1.03 29.77 0 29.77"/><polygon class="cls-8" points="1.33 29.46 2.67 48.78 2.37 49.08 1.03 29.77 1.33 29.46"/><polygon class="cls-9" points="1.03 29.77 2.37 49.08 1.34 49.08 0 29.77 1.03 29.77"/><polygon class="cls-8" points="62.1 23.13 63.44 42.45 60.61 45.38 59.27 26.06 62.1 23.13"/><polygon class="cls-8" points="59.27 26.06 60.61 45.38 60.47 45.54 59.13 26.22 59.27 26.06"/><polygon class="cls-8" points="76.69 22.98 78.03 42.3 75.65 44.77 74.31 25.45 76.69 22.98"/><polygon class="cls-8" points="63.39 26.06 64.73 45.38 64.58 45.54 63.25 26.22 63.39 26.06"/><polygon class="cls-9" points="63.25 26.22 64.58 45.54 60.47 45.54 59.13 26.22 63.25 26.22"/><polygon class="cls-7" points="60.12 29.46 66.67 22.67 67.71 22.67 61.15 29.46 60.12 29.46"/><polygon class="cls-7" points="59.13 26.22 59.27 26.06 63.39 26.06 63.25 26.22 59.13 26.22"/><polygon class="cls-8" points="74.31 25.45 75.65 44.77 75.5 44.92 74.16 25.6 74.31 25.45"/><polygon class="cls-9" points="81.9 25.6 83.24 44.92 75.5 44.92 74.16 25.6 81.9 25.6"/><polygon class="cls-8" points="82.05 25.45 83.39 44.77 83.24 44.92 81.9 25.6 82.05 25.45"/><polygon class="cls-7" points="74.16 25.6 74.31 25.45 82.05 25.45 81.9 25.6 74.16 25.6"/><polygon class="cls-9" points="82.33 26.22 83.67 45.54 82.64 45.54 81.3 26.22 82.33 26.22"/><polygon class="cls-8" points="83.67 24.83 85.01 44.15 83.67 45.54 82.33 26.22 83.67 24.83"/><polygon class="cls-7" points="81.3 26.22 82.64 24.83 83.67 24.83 82.33 26.22 81.3 26.22"/><polygon class="cls-8" points="67.71 22.67 69.05 41.99 62.49 48.78 61.15 29.46 67.71 22.67"/><polygon class="cls-7" points="66.47 28.22 70.94 23.6 71.45 23.6 66.98 28.22 66.47 28.22"/><polygon class="cls-8" points="71.45 23.6 72.79 42.91 68.33 47.54 66.98 28.22 71.45 23.6"/><polygon class="cls-9" points="66.98 28.22 68.33 47.54 67.81 47.54 66.47 28.22 66.98 28.22"/><polygon class="cls-8" points="74.16 25.6 75.5 44.92 73.04 47.46 71.7 28.15 74.16 25.6"/><polygon class="cls-8" points="71.7 28.15 73.04 47.46 72.89 47.62 71.55 28.3 71.7 28.15"/><polygon class="cls-7" points="54.96 29.46 61.07 23.13 62.1 23.13 59.27 26.06 59.13 26.22 55.99 29.46 54.96 29.46"/><polygon class="cls-9" points="55.99 29.46 57.34 48.78 56.3 48.78 54.96 29.46 55.99 29.46"/><polygon class="cls-8" points="59.13 26.22 60.47 45.54 57.34 48.78 55.99 29.46 59.13 26.22"/><polygon class="cls-9" points="61.15 29.46 62.49 48.78 61.46 48.78 60.12 29.46 61.15 29.46"/><polygon class="cls-9" points="62.91 29.77 64.25 49.08 2.37 49.08 1.03 29.77 62.91 29.77"/><polygon class="cls-8" points="63.21 29.46 64.55 48.78 64.25 49.08 62.91 29.77 63.21 29.46"/><polygon class="cls-7" points="1.03 29.77 1.33 29.46 63.21 29.46 62.91 29.77 1.03 29.77"/><polygon class="cls-9" points="70.44 29.46 71.77 48.78 70.74 48.78 69.4 29.46 70.44 29.46"/><polygon class="cls-7" points="69.4 29.46 77.59 20.97 78.63 20.97 78.33 21.28 76.99 22.67 76.69 22.98 74.31 25.45 74.16 25.6 71.7 28.15 71.55 28.3 70.44 29.46 69.4 29.46"/><polygon class="cls-8" points="71.55 28.3 72.89 47.62 71.77 48.78 70.44 29.46 71.55 28.3"/></g><g class="cls-2"><polygon class="cls-8" points="109.73 19.74 111.07 39.06 109.87 40.29 108.53 20.97 109.73 19.74"/><polygon class="cls-9" points="107.21 21.28 108.55 40.6 105.45 40.6 104.11 21.28 107.21 21.28"/><polygon class="cls-8" points="107.51 20.97 108.85 40.29 108.55 40.6 107.21 21.28 107.51 20.97"/><polygon class="cls-7" points="104.11 21.28 104.41 20.97 107.51 20.97 107.21 21.28 104.11 21.28"/><polygon class="cls-8" points="108.53 20.97 109.87 40.29 109.58 40.6 108.23 21.28 108.53 20.97"/><polygon class="cls-8" points="99.47 21.28 100.81 40.6 99.47 41.99 98.13 22.67 99.47 21.28"/><polygon class="cls-8" points="98.13 22.67 99.47 41.99 99.17 42.3 97.83 22.98 98.13 22.67"/><polygon class="cls-8" points="97.83 22.98 99.17 42.3 98.73 42.76 97.39 23.44 97.83 22.98"/><polygon class="cls-9" points="97.39 23.44 98.73 42.76 97.69 42.76 96.35 23.44 97.39 23.44"/><polygon class="cls-7" points="96.35 23.44 98.44 21.28 99.47 21.28 98.13 22.67 97.83 22.98 97.39 23.44 96.35 23.44"/><polygon class="cls-9" points="105.57 22.98 106.91 42.3 99.17 42.3 97.83 22.98 105.57 22.98"/><polygon class="cls-7" points="97.83 22.98 98.13 22.67 105.87 22.67 105.57 22.98 97.83 22.98"/><polygon class="cls-8" points="105.87 22.67 107.21 41.99 106.91 42.3 105.57 22.98 105.87 22.67"/><polygon class="cls-8" points="96.05 24.83 97.39 44.15 96.79 44.77 95.45 25.45 96.05 24.83"/><polygon class="cls-8" points="95.45 25.45 96.79 44.77 96.64 44.92 95.3 25.6 95.45 25.45"/><polygon class="cls-9" points="103.04 25.6 104.38 44.92 96.64 44.92 95.3 25.6 103.04 25.6"/><polygon class="cls-8" points="103.19 25.45 104.53 44.77 104.38 44.92 103.04 25.6 103.19 25.45"/><polygon class="cls-7" points="95.3 25.6 95.45 25.45 103.19 25.45 103.04 25.6 95.3 25.6"/><polygon class="cls-7" points="93.67 26.22 95.01 24.83 96.05 24.83 95.45 25.45 95.3 25.6 94.71 26.22 93.67 26.22"/><polygon class="cls-8" points="95.3 25.6 96.64 44.92 96.05 45.54 94.71 26.22 95.3 25.6"/><polygon class="cls-9" points="94.71 26.22 96.05 45.54 95.01 45.54 93.67 26.22 94.71 26.22"/><polygon class="cls-8" points="93.51 27.45 94.85 46.77 94.18 47.46 92.84 28.15 93.51 27.45"/><polygon class="cls-8" points="92.84 28.15 94.18 47.46 94.03 47.62 92.69 28.3 92.84 28.15"/><polygon class="cls-8" points="100.58 28.15 101.92 47.46 101.77 47.62 100.43 28.3 100.58 28.15"/><polygon class="cls-9" points="100.43 28.3 101.77 47.62 94.03 47.62 92.69 28.3 100.43 28.3"/><polygon class="cls-7" points="92.69 28.3 92.84 28.15 100.58 28.15 100.43 28.3 92.69 28.3"/><polygon class="cls-9" points="91.58 29.46 92.92 48.78 91.88 48.78 90.54 29.46 91.58 29.46"/><polygon class="cls-8" points="92.69 28.3 94.03 47.62 92.92 48.78 91.58 29.46 92.69 28.3"/><polygon class="cls-7" points="90.54 29.46 92.48 27.45 93.51 27.45 92.84 28.15 92.69 28.3 91.58 29.46 90.54 29.46"/><polygon class="cls-8" points="108.23 21.28 109.58 40.6 101.68 48.78 100.34 29.46 108.23 21.28"/><polygon class="cls-9" points="100.34 29.46 101.68 48.78 100.65 48.78 99.31 29.46 100.34 29.46"/><polygon class="cls-7" points="99.31 29.46 108.7 19.74 109.73 19.74 108.53 20.97 108.23 21.28 100.34 29.46 99.31 29.46"/></g><g class="cls-2"><polygon class="cls-7" points="108.23 21.28 108.53 20.97 110.6 20.97 110.3 21.28 108.23 21.28"/><polygon class="cls-8" points="110.6 20.97 111.94 40.29 111.64 40.6 110.3 21.28 110.6 20.97"/><polygon class="cls-9" points="110.3 21.28 111.64 40.6 109.58 40.6 108.23 21.28 110.3 21.28"/></g><g class="cls-2"><polygon class="cls-7" points="105.4 28.22 109.87 23.6 110.39 23.6 105.92 28.22 105.4 28.22"/><polygon class="cls-8" points="110.39 23.6 111.73 42.91 107.26 47.54 105.92 28.22 110.39 23.6"/><polygon class="cls-9" points="105.92 28.22 107.26 47.54 106.74 47.54 105.4 28.22 105.92 28.22"/></g><g class="cls-2"><polygon class="cls-7" points="71.55 28.3 71.7 28.15 79.44 28.15 79.29 28.3 71.55 28.3"/><polygon class="cls-8" points="79.44 28.15 80.78 47.46 80.63 47.62 79.29 28.3 79.44 28.15"/><polygon class="cls-9" points="79.29 28.3 80.63 47.62 72.89 47.62 71.55 28.3 79.29 28.3"/><polygon class="cls-7" points="78.17 29.46 80.11 27.45 81.14 27.45 79.2 29.46 78.17 29.46"/><polygon class="cls-8" points="81.14 27.45 82.47 46.77 80.54 48.78 79.2 29.46 81.14 27.45"/><polygon class="cls-9" points="79.2 29.46 80.54 48.78 79.51 48.78 78.17 29.46 79.2 29.46"/></g><g class="cls-2"><polygon class="cls-7" points="114.42 21.28 114.72 20.97 116.78 20.97 116.48 21.28 114.42 21.28"/><polygon class="cls-8" points="116.78 20.97 118.12 40.29 117.83 40.6 116.48 21.28 116.78 20.97"/><polygon class="cls-9" points="116.48 21.28 117.83 40.6 115.76 40.6 114.42 21.28 116.48 21.28"/></g><g class="cls-2"><polygon class="cls-7" points="130.65 12.49 130.8 12.34 151.43 12.34 151.28 12.49 130.65 12.49"/><polygon class="cls-8" points="151.43 12.34 152.77 31.66 152.62 31.81 151.28 12.49 151.43 12.34"/><polygon class="cls-9" points="151.28 12.49 152.62 31.81 131.99 31.81 130.65 12.49 151.28 12.49"/></g><g class="cls-2"><polygon class="cls-8" points="120.65 18.04 121.99 37.36 119.16 40.29 117.82 20.97 120.65 18.04"/><polygon class="cls-8" points="117.82 20.97 119.16 40.29 118.86 40.6 117.52 21.28 117.82 20.97"/><polygon class="cls-7" points="117.52 21.28 117.82 20.97 119.37 20.97 119.07 21.28 117.52 21.28"/><polygon class="cls-9" points="119.07 21.28 120.41 40.6 118.86 40.6 117.52 21.28 119.07 21.28"/><polygon class="cls-8" points="119.37 20.97 120.71 40.29 120.41 40.6 119.07 21.28 119.37 20.97"/><polygon class="cls-8" points="117.52 21.28 118.86 40.6 116.78 42.76 115.44 23.44 117.52 21.28"/><polygon class="cls-8" points="115.44 23.44 116.78 42.76 116.63 42.91 115.28 23.6 115.44 23.44"/><polygon class="cls-9" points="119.42 23.6 120.75 42.91 116.63 42.91 115.28 23.6 119.42 23.6"/><polygon class="cls-7" points="115.28 23.6 115.44 23.44 119.56 23.44 119.42 23.6 115.28 23.6"/><polygon class="cls-8" points="119.56 23.44 120.91 42.76 120.75 42.91 119.42 23.6 119.56 23.44"/><polygon class="cls-8" points="115.28 23.6 116.63 42.91 115.29 44.3 113.95 24.98 115.28 23.6"/><polygon class="cls-8" points="113.95 24.98 115.29 44.3 115.14 44.46 113.8 25.14 113.95 24.98"/><polygon class="cls-7" points="113.8 25.14 113.95 24.98 118.08 24.98 117.92 25.14 113.8 25.14"/><polygon class="cls-9" points="117.92 25.14 119.27 44.46 115.14 44.46 113.8 25.14 117.92 25.14"/><polygon class="cls-8" points="118.08 24.98 119.42 44.3 119.27 44.46 117.92 25.14 118.08 24.98"/><polygon class="cls-8" points="113.8 25.14 115.14 44.46 114.09 45.54 112.75 26.22 113.8 25.14"/><polygon class="cls-8" points="112.75 26.22 114.09 45.54 113.94 45.69 112.61 26.37 112.75 26.22"/><polygon class="cls-8" points="116.88 26.22 118.22 45.54 118.08 45.69 116.73 26.37 116.88 26.22"/><polygon class="cls-9" points="116.73 26.37 118.08 45.69 113.94 45.69 112.61 26.37 116.73 26.37"/><polygon class="cls-7" points="113.75 29.46 121.95 20.97 122.97 20.97 114.78 29.46 113.75 29.46"/><polygon class="cls-7" points="112.61 26.37 112.75 26.22 116.88 26.22 116.73 26.37 112.61 26.37"/><polygon class="cls-9" points="109.62 29.46 110.96 48.78 109.93 48.78 108.59 29.46 109.62 29.46"/><polygon class="cls-7" points="108.59 29.46 119.61 18.04 120.65 18.04 117.82 20.97 117.52 21.28 115.44 23.44 115.28 23.6 113.95 24.98 113.8 25.14 112.75 26.22 112.61 26.37 109.62 29.46 108.59 29.46"/><polygon class="cls-8" points="112.61 26.37 113.94 45.69 110.96 48.78 109.62 29.46 112.61 26.37"/><polygon class="cls-9" points="114.78 29.46 116.12 48.78 115.09 48.78 113.75 29.46 114.78 29.46"/><polygon class="cls-8" points="122.97 20.97 124.31 40.29 116.12 48.78 114.78 29.46 122.97 20.97"/><polygon class="cls-7" points="107.78 29.77 108.08 29.46 144.17 29.46 143.88 29.77 107.78 29.77"/><polygon class="cls-9" points="143.88 29.77 145.21 49.08 109.12 49.08 107.78 29.77 143.88 29.77"/><polygon class="cls-8" points="144.17 29.46 145.51 48.78 145.21 49.08 143.88 29.77 144.17 29.46"/></g><g class="cls-2"><polygon class="cls-7" points="67.56 29.77 67.85 29.46 103.96 29.46 103.66 29.77 67.56 29.77"/><polygon class="cls-8" points="103.96 29.46 105.3 48.78 105 49.08 103.66 29.77 103.96 29.46"/><polygon class="cls-9" points="103.66 29.77 105 49.08 68.9 49.08 67.56 29.77 103.66 29.77"/></g></g><polygon class="cls-1" points="379.27 30.04 0.28 30.04 28.27 0.04 402.27 7.04 379.27 30.04"/></g></g></svg>