<?xml version="1.0" encoding="UTF-8"?>
<svg width="24px" height="36px" viewBox="0 0 24 36" version="1.1" xmlns="http://www.w3.org/2000/svg" xmlns:xlink="http://www.w3.org/1999/xlink">
    <!-- Generator: Sketch 51.3 (57544) - http://www.bohemiancoding.com/sketch -->
    <title>水</title>
    <desc>Created with Sketch.</desc>
    <defs></defs>
    <g id="Page-1" stroke="none" stroke-width="1" fill="none" fill-rule="evenodd">
        <g id="首页-B3到1F-告警" transform="translate(-1979.000000, -760.000000)" fill="#B9E0F9" fill-rule="nonzero">
            <g id="设备与能耗" transform="translate(1940.000000, 20.000000)">
                <g id="水能耗" transform="translate(30.000000, 732.000000)">
                    <g id="水" transform="translate(3.000000, 8.000000)">
                        <rect id="Rectangle-path" opacity="0" x="0" y="0" width="36" height="36"></rect>
                        <path d="M18.8198438,0.838476562 C18.4591406,0.28125 17.5408594,0.28125 17.1801563,0.838476562 C16.734375,1.52367188 6.271875,17.6937891 6.271875,23.85 C6.271875,30.3173438 11.53125,35.578125 18,35.578125 C24.46875,35.578125 29.728125,30.3173438 29.728125,23.85 C29.728125,17.6937891 19.265625,1.52367188 18.8198438,0.838476562 Z M18,33.6234375 C12.61125,33.6234375 8.2265625,29.23875 8.2265625,23.85 C8.2265625,19.6010156 14.6601563,8.49410156 18,3.18726563 C21.3398438,8.49410156 27.7734375,19.6006641 27.7734375,23.85 C27.7734375,29.23875 23.38875,33.6234375 18,33.6234375 Z" id="Shape"></path>
                        <path d="M24.8414063,22.8726562 C24.5821414,22.8724695 24.3334417,22.9753794 24.1501137,23.1587074 C23.9667857,23.3420354 23.8638758,23.5907351 23.8640625,23.85 C23.8640625,27.084375 21.2336719,29.7140625 18,29.7140625 C17.460228,29.7140625 17.0226563,30.1516342 17.0226563,30.6914062 C17.0226563,31.2311783 17.460228,31.66875 18,31.66875 C22.3112109,31.66875 25.81875,28.1612109 25.81875,23.85 C25.8189367,23.5907351 25.7160268,23.3420354 25.5326988,23.1587074 C25.3493708,22.9753794 25.1006711,22.8724695 24.8414063,22.8726562 Z" id="Shape"></path>
                    </g>
                </g>
            </g>
        </g>
    </g>
</svg>